<?xml version="1.0" encoding="utf-8" standalone="no"?>
<!DOCTYPE svg PUBLIC "-//W3C//DTD SVG 1.1//EN"
  "http://www.w3.org/Graphics/SVG/1.1/DTD/svg11.dtd">
<svg xmlns:xlink="http://www.w3.org/1999/xlink" width="1152pt" height="648pt" viewBox="0 0 1152 648" xmlns="http://www.w3.org/2000/svg" version="1.1">
 <metadata>
  <rdf:RDF xmlns:dc="http://purl.org/dc/elements/1.1/" xmlns:cc="http://creativecommons.org/ns#" xmlns:rdf="http://www.w3.org/1999/02/22-rdf-syntax-ns#">
   <cc:Work>
    <dc:type rdf:resource="http://purl.org/dc/dcmitype/StillImage"/>
    <dc:date>2022-04-29T15:56:05.106463</dc:date>
    <dc:format>image/svg+xml</dc:format>
    <dc:creator>
     <cc:Agent>
      <dc:title>Matplotlib v3.5.1, https://matplotlib.org/</dc:title>
     </cc:Agent>
    </dc:creator>
   </cc:Work>
  </rdf:RDF>
 </metadata>
 <defs>
  <style type="text/css">*{stroke-linejoin: round; stroke-linecap: butt}</style>
 </defs>
 <g id="figure_1">
  <g id="patch_1">
   <path d="M 0 648 
L 1152 648 
L 1152 0 
L 0 0 
z
" style="fill: #ffffff"/>
  </g>
  <g id="axes_1">
   <g id="patch_2">
    <path d="M 144 304.56 
L 549.818182 304.56 
L 549.818182 77.76 
L 144 77.76 
z
" style="fill: #eaeaf2"/>
   </g>
   <g id="matplotlib.axis_1">
    <g id="xtick_1">
     <g id="text_1">
      <!-- Iris-setosa -->
      <g style="fill: #262626" transform="translate(186.270192 321.933594)scale(0.11 -0.11)">
       <defs>
        <path id="ArialMT-49" d="M 597 0 
L 597 4581 
L 1203 4581 
L 1203 0 
L 597 0 
z
" transform="scale(0.015625)"/>
        <path id="ArialMT-72" d="M 416 0 
L 416 3319 
L 922 3319 
L 922 2816 
Q 1116 3169 1280 3281 
Q 1444 3394 1641 3394 
Q 1925 3394 2219 3213 
L 2025 2691 
Q 1819 2813 1613 2813 
Q 1428 2813 1281 2702 
Q 1134 2591 1072 2394 
Q 978 2094 978 1738 
L 978 0 
L 416 0 
z
" transform="scale(0.015625)"/>
        <path id="ArialMT-69" d="M 425 3934 
L 425 4581 
L 988 4581 
L 988 3934 
L 425 3934 
z
M 425 0 
L 425 3319 
L 988 3319 
L 988 0 
L 425 0 
z
" transform="scale(0.015625)"/>
        <path id="ArialMT-73" d="M 197 991 
L 753 1078 
Q 800 744 1014 566 
Q 1228 388 1613 388 
Q 2000 388 2187 545 
Q 2375 703 2375 916 
Q 2375 1106 2209 1216 
Q 2094 1291 1634 1406 
Q 1016 1563 777 1677 
Q 538 1791 414 1992 
Q 291 2194 291 2438 
Q 291 2659 392 2848 
Q 494 3038 669 3163 
Q 800 3259 1026 3326 
Q 1253 3394 1513 3394 
Q 1903 3394 2198 3281 
Q 2494 3169 2634 2976 
Q 2775 2784 2828 2463 
L 2278 2388 
Q 2241 2644 2061 2787 
Q 1881 2931 1553 2931 
Q 1166 2931 1000 2803 
Q 834 2675 834 2503 
Q 834 2394 903 2306 
Q 972 2216 1119 2156 
Q 1203 2125 1616 2013 
Q 2213 1853 2448 1751 
Q 2684 1650 2818 1456 
Q 2953 1263 2953 975 
Q 2953 694 2789 445 
Q 2625 197 2315 61 
Q 2006 -75 1616 -75 
Q 969 -75 630 194 
Q 291 463 197 991 
z
" transform="scale(0.015625)"/>
        <path id="ArialMT-2d" d="M 203 1375 
L 203 1941 
L 1931 1941 
L 1931 1375 
L 203 1375 
z
" transform="scale(0.015625)"/>
        <path id="ArialMT-65" d="M 2694 1069 
L 3275 997 
Q 3138 488 2766 206 
Q 2394 -75 1816 -75 
Q 1088 -75 661 373 
Q 234 822 234 1631 
Q 234 2469 665 2931 
Q 1097 3394 1784 3394 
Q 2450 3394 2872 2941 
Q 3294 2488 3294 1666 
Q 3294 1616 3291 1516 
L 816 1516 
Q 847 969 1125 678 
Q 1403 388 1819 388 
Q 2128 388 2347 550 
Q 2566 713 2694 1069 
z
M 847 1978 
L 2700 1978 
Q 2663 2397 2488 2606 
Q 2219 2931 1791 2931 
Q 1403 2931 1139 2672 
Q 875 2413 847 1978 
z
" transform="scale(0.015625)"/>
        <path id="ArialMT-74" d="M 1650 503 
L 1731 6 
Q 1494 -44 1306 -44 
Q 1000 -44 831 53 
Q 663 150 594 308 
Q 525 466 525 972 
L 525 2881 
L 113 2881 
L 113 3319 
L 525 3319 
L 525 4141 
L 1084 4478 
L 1084 3319 
L 1650 3319 
L 1650 2881 
L 1084 2881 
L 1084 941 
Q 1084 700 1114 631 
Q 1144 563 1211 522 
Q 1278 481 1403 481 
Q 1497 481 1650 503 
z
" transform="scale(0.015625)"/>
        <path id="ArialMT-6f" d="M 213 1659 
Q 213 2581 725 3025 
Q 1153 3394 1769 3394 
Q 2453 3394 2887 2945 
Q 3322 2497 3322 1706 
Q 3322 1066 3130 698 
Q 2938 331 2570 128 
Q 2203 -75 1769 -75 
Q 1072 -75 642 372 
Q 213 819 213 1659 
z
M 791 1659 
Q 791 1022 1069 705 
Q 1347 388 1769 388 
Q 2188 388 2466 706 
Q 2744 1025 2744 1678 
Q 2744 2294 2464 2611 
Q 2184 2928 1769 2928 
Q 1347 2928 1069 2612 
Q 791 2297 791 1659 
z
" transform="scale(0.015625)"/>
        <path id="ArialMT-61" d="M 2588 409 
Q 2275 144 1986 34 
Q 1697 -75 1366 -75 
Q 819 -75 525 192 
Q 231 459 231 875 
Q 231 1119 342 1320 
Q 453 1522 633 1644 
Q 813 1766 1038 1828 
Q 1203 1872 1538 1913 
Q 2219 1994 2541 2106 
Q 2544 2222 2544 2253 
Q 2544 2597 2384 2738 
Q 2169 2928 1744 2928 
Q 1347 2928 1158 2789 
Q 969 2650 878 2297 
L 328 2372 
Q 403 2725 575 2942 
Q 747 3159 1072 3276 
Q 1397 3394 1825 3394 
Q 2250 3394 2515 3294 
Q 2781 3194 2906 3042 
Q 3031 2891 3081 2659 
Q 3109 2516 3109 2141 
L 3109 1391 
Q 3109 606 3145 398 
Q 3181 191 3288 0 
L 2700 0 
Q 2613 175 2588 409 
z
M 2541 1666 
Q 2234 1541 1622 1453 
Q 1275 1403 1131 1340 
Q 988 1278 909 1158 
Q 831 1038 831 891 
Q 831 666 1001 516 
Q 1172 366 1500 366 
Q 1825 366 2078 508 
Q 2331 650 2450 897 
Q 2541 1088 2541 1459 
L 2541 1666 
z
" transform="scale(0.015625)"/>
       </defs>
       <use xlink:href="#ArialMT-49"/>
       <use xlink:href="#ArialMT-72" x="27.783203"/>
       <use xlink:href="#ArialMT-69" x="61.083984"/>
       <use xlink:href="#ArialMT-73" x="83.300781"/>
       <use xlink:href="#ArialMT-2d" x="133.300781"/>
       <use xlink:href="#ArialMT-73" x="166.601562"/>
       <use xlink:href="#ArialMT-65" x="216.601562"/>
       <use xlink:href="#ArialMT-74" x="272.216797"/>
       <use xlink:href="#ArialMT-6f" x="300"/>
       <use xlink:href="#ArialMT-73" x="355.615234"/>
       <use xlink:href="#ArialMT-61" x="405.615234"/>
      </g>
     </g>
    </g>
    <g id="xtick_2">
     <g id="text_2">
      <!-- Iris-versicolor -->
      <g style="fill: #262626" transform="translate(314.214169 321.933594)scale(0.11 -0.11)">
       <defs>
        <path id="ArialMT-76" d="M 1344 0 
L 81 3319 
L 675 3319 
L 1388 1331 
Q 1503 1009 1600 663 
Q 1675 925 1809 1294 
L 2547 3319 
L 3125 3319 
L 1869 0 
L 1344 0 
z
" transform="scale(0.015625)"/>
        <path id="ArialMT-63" d="M 2588 1216 
L 3141 1144 
Q 3050 572 2676 248 
Q 2303 -75 1759 -75 
Q 1078 -75 664 370 
Q 250 816 250 1647 
Q 250 2184 428 2587 
Q 606 2991 970 3192 
Q 1334 3394 1763 3394 
Q 2303 3394 2647 3120 
Q 2991 2847 3088 2344 
L 2541 2259 
Q 2463 2594 2264 2762 
Q 2066 2931 1784 2931 
Q 1359 2931 1093 2626 
Q 828 2322 828 1663 
Q 828 994 1084 691 
Q 1341 388 1753 388 
Q 2084 388 2306 591 
Q 2528 794 2588 1216 
z
" transform="scale(0.015625)"/>
        <path id="ArialMT-6c" d="M 409 0 
L 409 4581 
L 972 4581 
L 972 0 
L 409 0 
z
" transform="scale(0.015625)"/>
       </defs>
       <use xlink:href="#ArialMT-49"/>
       <use xlink:href="#ArialMT-72" x="27.783203"/>
       <use xlink:href="#ArialMT-69" x="61.083984"/>
       <use xlink:href="#ArialMT-73" x="83.300781"/>
       <use xlink:href="#ArialMT-2d" x="133.300781"/>
       <use xlink:href="#ArialMT-76" x="166.601562"/>
       <use xlink:href="#ArialMT-65" x="216.601562"/>
       <use xlink:href="#ArialMT-72" x="272.216797"/>
       <use xlink:href="#ArialMT-73" x="305.517578"/>
       <use xlink:href="#ArialMT-69" x="355.517578"/>
       <use xlink:href="#ArialMT-63" x="377.734375"/>
       <use xlink:href="#ArialMT-6f" x="427.734375"/>
       <use xlink:href="#ArialMT-6c" x="483.349609"/>
       <use xlink:href="#ArialMT-6f" x="505.566406"/>
       <use xlink:href="#ArialMT-72" x="561.181641"/>
      </g>
     </g>
    </g>
    <g id="xtick_3">
     <g id="text_3">
      <!-- Iris-virginica -->
      <g style="fill: #262626" transform="translate(452.846193 321.933594)scale(0.11 -0.11)">
       <defs>
        <path id="ArialMT-67" d="M 319 -275 
L 866 -356 
Q 900 -609 1056 -725 
Q 1266 -881 1628 -881 
Q 2019 -881 2231 -725 
Q 2444 -569 2519 -288 
Q 2563 -116 2559 434 
Q 2191 0 1641 0 
Q 956 0 581 494 
Q 206 988 206 1678 
Q 206 2153 378 2554 
Q 550 2956 876 3175 
Q 1203 3394 1644 3394 
Q 2231 3394 2613 2919 
L 2613 3319 
L 3131 3319 
L 3131 450 
Q 3131 -325 2973 -648 
Q 2816 -972 2473 -1159 
Q 2131 -1347 1631 -1347 
Q 1038 -1347 672 -1080 
Q 306 -813 319 -275 
z
M 784 1719 
Q 784 1066 1043 766 
Q 1303 466 1694 466 
Q 2081 466 2343 764 
Q 2606 1063 2606 1700 
Q 2606 2309 2336 2618 
Q 2066 2928 1684 2928 
Q 1309 2928 1046 2623 
Q 784 2319 784 1719 
z
" transform="scale(0.015625)"/>
        <path id="ArialMT-6e" d="M 422 0 
L 422 3319 
L 928 3319 
L 928 2847 
Q 1294 3394 1984 3394 
Q 2284 3394 2536 3286 
Q 2788 3178 2913 3003 
Q 3038 2828 3088 2588 
Q 3119 2431 3119 2041 
L 3119 0 
L 2556 0 
L 2556 2019 
Q 2556 2363 2490 2533 
Q 2425 2703 2258 2804 
Q 2091 2906 1866 2906 
Q 1506 2906 1245 2678 
Q 984 2450 984 1813 
L 984 0 
L 422 0 
z
" transform="scale(0.015625)"/>
       </defs>
       <use xlink:href="#ArialMT-49"/>
       <use xlink:href="#ArialMT-72" x="27.783203"/>
       <use xlink:href="#ArialMT-69" x="61.083984"/>
       <use xlink:href="#ArialMT-73" x="83.300781"/>
       <use xlink:href="#ArialMT-2d" x="133.300781"/>
       <use xlink:href="#ArialMT-76" x="166.601562"/>
       <use xlink:href="#ArialMT-69" x="216.601562"/>
       <use xlink:href="#ArialMT-72" x="238.818359"/>
       <use xlink:href="#ArialMT-67" x="272.119141"/>
       <use xlink:href="#ArialMT-69" x="327.734375"/>
       <use xlink:href="#ArialMT-6e" x="349.951172"/>
       <use xlink:href="#ArialMT-69" x="405.566406"/>
       <use xlink:href="#ArialMT-63" x="427.783203"/>
       <use xlink:href="#ArialMT-61" x="477.783203"/>
      </g>
     </g>
    </g>
    <g id="text_4">
     <!-- species -->
     <g style="fill: #262626" transform="translate(326.566278 336.838125)scale(0.12 -0.12)">
      <defs>
       <path id="ArialMT-70" d="M 422 -1272 
L 422 3319 
L 934 3319 
L 934 2888 
Q 1116 3141 1344 3267 
Q 1572 3394 1897 3394 
Q 2322 3394 2647 3175 
Q 2972 2956 3137 2557 
Q 3303 2159 3303 1684 
Q 3303 1175 3120 767 
Q 2938 359 2589 142 
Q 2241 -75 1856 -75 
Q 1575 -75 1351 44 
Q 1128 163 984 344 
L 984 -1272 
L 422 -1272 
z
M 931 1641 
Q 931 1000 1190 694 
Q 1450 388 1819 388 
Q 2194 388 2461 705 
Q 2728 1022 2728 1688 
Q 2728 2322 2467 2637 
Q 2206 2953 1844 2953 
Q 1484 2953 1207 2617 
Q 931 2281 931 1641 
z
" transform="scale(0.015625)"/>
      </defs>
      <use xlink:href="#ArialMT-73"/>
      <use xlink:href="#ArialMT-70" x="50"/>
      <use xlink:href="#ArialMT-65" x="105.615234"/>
      <use xlink:href="#ArialMT-63" x="161.230469"/>
      <use xlink:href="#ArialMT-69" x="211.230469"/>
      <use xlink:href="#ArialMT-65" x="233.447266"/>
      <use xlink:href="#ArialMT-73" x="289.0625"/>
     </g>
    </g>
   </g>
   <g id="matplotlib.axis_2">
    <g id="ytick_1">
     <g id="line2d_1">
      <path d="M 144 302.841818 
L 549.818182 302.841818 
" clip-path="url(#p3c4a35440b)" style="fill: none; stroke: #ffffff; stroke-linecap: round"/>
     </g>
     <g id="text_5">
      <!-- 0.0 -->
      <g style="fill: #262626" transform="translate(119.21 306.778615)scale(0.11 -0.11)">
       <defs>
        <path id="ArialMT-30" d="M 266 2259 
Q 266 3072 433 3567 
Q 600 4063 929 4331 
Q 1259 4600 1759 4600 
Q 2128 4600 2406 4451 
Q 2684 4303 2865 4023 
Q 3047 3744 3150 3342 
Q 3253 2941 3253 2259 
Q 3253 1453 3087 958 
Q 2922 463 2592 192 
Q 2263 -78 1759 -78 
Q 1097 -78 719 397 
Q 266 969 266 2259 
z
M 844 2259 
Q 844 1131 1108 757 
Q 1372 384 1759 384 
Q 2147 384 2411 759 
Q 2675 1134 2675 2259 
Q 2675 3391 2411 3762 
Q 2147 4134 1753 4134 
Q 1366 4134 1134 3806 
Q 844 3388 844 2259 
z
" transform="scale(0.015625)"/>
        <path id="ArialMT-2e" d="M 581 0 
L 581 641 
L 1222 641 
L 1222 0 
L 581 0 
z
" transform="scale(0.015625)"/>
       </defs>
       <use xlink:href="#ArialMT-30"/>
       <use xlink:href="#ArialMT-2e" x="55.615234"/>
       <use xlink:href="#ArialMT-30" x="83.398438"/>
      </g>
     </g>
    </g>
    <g id="ytick_2">
     <g id="line2d_2">
      <path d="M 144 259.887273 
L 549.818182 259.887273 
" clip-path="url(#p3c4a35440b)" style="fill: none; stroke: #ffffff; stroke-linecap: round"/>
     </g>
     <g id="text_6">
      <!-- 0.5 -->
      <g style="fill: #262626" transform="translate(119.21 263.82407)scale(0.11 -0.11)">
       <defs>
        <path id="ArialMT-35" d="M 266 1200 
L 856 1250 
Q 922 819 1161 601 
Q 1400 384 1738 384 
Q 2144 384 2425 690 
Q 2706 997 2706 1503 
Q 2706 1984 2436 2262 
Q 2166 2541 1728 2541 
Q 1456 2541 1237 2417 
Q 1019 2294 894 2097 
L 366 2166 
L 809 4519 
L 3088 4519 
L 3088 3981 
L 1259 3981 
L 1013 2750 
Q 1425 3038 1878 3038 
Q 2478 3038 2890 2622 
Q 3303 2206 3303 1553 
Q 3303 931 2941 478 
Q 2500 -78 1738 -78 
Q 1113 -78 717 272 
Q 322 622 266 1200 
z
" transform="scale(0.015625)"/>
       </defs>
       <use xlink:href="#ArialMT-30"/>
       <use xlink:href="#ArialMT-2e" x="55.615234"/>
       <use xlink:href="#ArialMT-35" x="83.398438"/>
      </g>
     </g>
    </g>
    <g id="ytick_3">
     <g id="line2d_3">
      <path d="M 144 216.932727 
L 549.818182 216.932727 
" clip-path="url(#p3c4a35440b)" style="fill: none; stroke: #ffffff; stroke-linecap: round"/>
     </g>
     <g id="text_7">
      <!-- 1.0 -->
      <g style="fill: #262626" transform="translate(119.21 220.869524)scale(0.11 -0.11)">
       <defs>
        <path id="ArialMT-31" d="M 2384 0 
L 1822 0 
L 1822 3584 
Q 1619 3391 1289 3197 
Q 959 3003 697 2906 
L 697 3450 
Q 1169 3672 1522 3987 
Q 1875 4303 2022 4600 
L 2384 4600 
L 2384 0 
z
" transform="scale(0.015625)"/>
       </defs>
       <use xlink:href="#ArialMT-31"/>
       <use xlink:href="#ArialMT-2e" x="55.615234"/>
       <use xlink:href="#ArialMT-30" x="83.398438"/>
      </g>
     </g>
    </g>
    <g id="ytick_4">
     <g id="line2d_4">
      <path d="M 144 173.978182 
L 549.818182 173.978182 
" clip-path="url(#p3c4a35440b)" style="fill: none; stroke: #ffffff; stroke-linecap: round"/>
     </g>
     <g id="text_8">
      <!-- 1.5 -->
      <g style="fill: #262626" transform="translate(119.21 177.914979)scale(0.11 -0.11)">
       <use xlink:href="#ArialMT-31"/>
       <use xlink:href="#ArialMT-2e" x="55.615234"/>
       <use xlink:href="#ArialMT-35" x="83.398438"/>
      </g>
     </g>
    </g>
    <g id="ytick_5">
     <g id="line2d_5">
      <path d="M 144 131.023636 
L 549.818182 131.023636 
" clip-path="url(#p3c4a35440b)" style="fill: none; stroke: #ffffff; stroke-linecap: round"/>
     </g>
     <g id="text_9">
      <!-- 2.0 -->
      <g style="fill: #262626" transform="translate(119.21 134.960433)scale(0.11 -0.11)">
       <defs>
        <path id="ArialMT-32" d="M 3222 541 
L 3222 0 
L 194 0 
Q 188 203 259 391 
Q 375 700 629 1000 
Q 884 1300 1366 1694 
Q 2113 2306 2375 2664 
Q 2638 3022 2638 3341 
Q 2638 3675 2398 3904 
Q 2159 4134 1775 4134 
Q 1369 4134 1125 3890 
Q 881 3647 878 3216 
L 300 3275 
Q 359 3922 746 4261 
Q 1134 4600 1788 4600 
Q 2447 4600 2831 4234 
Q 3216 3869 3216 3328 
Q 3216 3053 3103 2787 
Q 2991 2522 2730 2228 
Q 2469 1934 1863 1422 
Q 1356 997 1212 845 
Q 1069 694 975 541 
L 3222 541 
z
" transform="scale(0.015625)"/>
       </defs>
       <use xlink:href="#ArialMT-32"/>
       <use xlink:href="#ArialMT-2e" x="55.615234"/>
       <use xlink:href="#ArialMT-30" x="83.398438"/>
      </g>
     </g>
    </g>
    <g id="ytick_6">
     <g id="line2d_6">
      <path d="M 144 88.069091 
L 549.818182 88.069091 
" clip-path="url(#p3c4a35440b)" style="fill: none; stroke: #ffffff; stroke-linecap: round"/>
     </g>
     <g id="text_10">
      <!-- 2.5 -->
      <g style="fill: #262626" transform="translate(119.21 92.005888)scale(0.11 -0.11)">
       <use xlink:href="#ArialMT-32"/>
       <use xlink:href="#ArialMT-2e" x="55.615234"/>
       <use xlink:href="#ArialMT-35" x="83.398438"/>
      </g>
     </g>
    </g>
    <g id="text_11">
     <!-- petal_width -->
     <g style="fill: #262626" transform="translate(112.825 221.5125)rotate(-90)scale(0.12 -0.12)">
      <defs>
       <path id="ArialMT-5f" d="M -97 -1272 
L -97 -866 
L 3631 -866 
L 3631 -1272 
L -97 -1272 
z
" transform="scale(0.015625)"/>
       <path id="ArialMT-77" d="M 1034 0 
L 19 3319 
L 600 3319 
L 1128 1403 
L 1325 691 
Q 1338 744 1497 1375 
L 2025 3319 
L 2603 3319 
L 3100 1394 
L 3266 759 
L 3456 1400 
L 4025 3319 
L 4572 3319 
L 3534 0 
L 2950 0 
L 2422 1988 
L 2294 2553 
L 1622 0 
L 1034 0 
z
" transform="scale(0.015625)"/>
       <path id="ArialMT-64" d="M 2575 0 
L 2575 419 
Q 2259 -75 1647 -75 
Q 1250 -75 917 144 
Q 584 363 401 755 
Q 219 1147 219 1656 
Q 219 2153 384 2558 
Q 550 2963 881 3178 
Q 1213 3394 1622 3394 
Q 1922 3394 2156 3267 
Q 2391 3141 2538 2938 
L 2538 4581 
L 3097 4581 
L 3097 0 
L 2575 0 
z
M 797 1656 
Q 797 1019 1065 703 
Q 1334 388 1700 388 
Q 2069 388 2326 689 
Q 2584 991 2584 1609 
Q 2584 2291 2321 2609 
Q 2059 2928 1675 2928 
Q 1300 2928 1048 2622 
Q 797 2316 797 1656 
z
" transform="scale(0.015625)"/>
       <path id="ArialMT-68" d="M 422 0 
L 422 4581 
L 984 4581 
L 984 2938 
Q 1378 3394 1978 3394 
Q 2347 3394 2619 3248 
Q 2891 3103 3008 2847 
Q 3125 2591 3125 2103 
L 3125 0 
L 2563 0 
L 2563 2103 
Q 2563 2525 2380 2717 
Q 2197 2909 1863 2909 
Q 1613 2909 1392 2779 
Q 1172 2650 1078 2428 
Q 984 2206 984 1816 
L 984 0 
L 422 0 
z
" transform="scale(0.015625)"/>
      </defs>
      <use xlink:href="#ArialMT-70"/>
      <use xlink:href="#ArialMT-65" x="55.615234"/>
      <use xlink:href="#ArialMT-74" x="111.230469"/>
      <use xlink:href="#ArialMT-61" x="139.013672"/>
      <use xlink:href="#ArialMT-6c" x="194.628906"/>
      <use xlink:href="#ArialMT-5f" x="216.845703"/>
      <use xlink:href="#ArialMT-77" x="272.460938"/>
      <use xlink:href="#ArialMT-69" x="344.677734"/>
      <use xlink:href="#ArialMT-64" x="366.894531"/>
      <use xlink:href="#ArialMT-74" x="422.509766"/>
      <use xlink:href="#ArialMT-68" x="450.292969"/>
     </g>
    </g>
   </g>
   <g id="patch_3">
    <path d="M 157.527273 285.66 
L 265.745455 285.66 
L 265.745455 277.069091 
L 157.527273 277.069091 
L 157.527273 285.66 
z
" clip-path="url(#p3c4a35440b)" style="fill: #e68193; stroke: #444444; stroke-width: 1.5; stroke-linejoin: miter"/>
   </g>
   <g id="patch_4">
    <path d="M 292.8 199.750909 
L 401.018182 199.750909 
L 401.018182 173.978182 
L 292.8 173.978182 
L 292.8 199.750909 
z
" clip-path="url(#p3c4a35440b)" style="fill: #aa8f43; stroke: #444444; stroke-width: 1.5; stroke-linejoin: miter"/>
   </g>
   <g id="patch_5">
    <path d="M 428.072727 148.205455 
L 536.290909 148.205455 
L 536.290909 105.250909 
L 428.072727 105.250909 
L 428.072727 148.205455 
z
" clip-path="url(#p3c4a35440b)" style="fill: #58a141; stroke: #444444; stroke-width: 1.5; stroke-linejoin: miter"/>
   </g>
   <g id="line2d_7">
    <path d="M 211.636364 285.66 
L 211.636364 294.250909 
" clip-path="url(#p3c4a35440b)" style="fill: none; stroke: #444444; stroke-width: 1.5; stroke-linecap: round"/>
   </g>
   <g id="line2d_8">
    <path d="M 211.636364 277.069091 
L 211.636364 268.478182 
" clip-path="url(#p3c4a35440b)" style="fill: none; stroke: #444444; stroke-width: 1.5; stroke-linecap: round"/>
   </g>
   <g id="line2d_9">
    <path d="M 184.581818 294.250909 
L 238.690909 294.250909 
" clip-path="url(#p3c4a35440b)" style="fill: none; stroke: #444444; stroke-width: 1.5; stroke-linecap: round"/>
   </g>
   <g id="line2d_10">
    <path d="M 184.581818 268.478182 
L 238.690909 268.478182 
" clip-path="url(#p3c4a35440b)" style="fill: none; stroke: #444444; stroke-width: 1.5; stroke-linecap: round"/>
   </g>
   <g id="line2d_11">
    <defs>
     <path id="m1257350798" d="M 0 3.535534 
L 2.12132 0 
L 0 -3.535534 
L -2.12132 0 
z
" style="stroke: #444444; stroke-linejoin: miter"/>
    </defs>
    <g clip-path="url(#p3c4a35440b)">
     <use xlink:href="#m1257350798" x="211.636364" y="259.887273" style="fill: #444444; stroke: #444444; stroke-linejoin: miter"/>
     <use xlink:href="#m1257350798" x="211.636364" y="251.296364" style="fill: #444444; stroke: #444444; stroke-linejoin: miter"/>
    </g>
   </g>
   <g id="line2d_12">
    <path d="M 346.909091 199.750909 
L 346.909091 216.932727 
" clip-path="url(#p3c4a35440b)" style="fill: none; stroke: #444444; stroke-width: 1.5; stroke-linecap: round"/>
   </g>
   <g id="line2d_13">
    <path d="M 346.909091 173.978182 
L 346.909091 148.205455 
" clip-path="url(#p3c4a35440b)" style="fill: none; stroke: #444444; stroke-width: 1.5; stroke-linecap: round"/>
   </g>
   <g id="line2d_14">
    <path d="M 319.854545 216.932727 
L 373.963636 216.932727 
" clip-path="url(#p3c4a35440b)" style="fill: none; stroke: #444444; stroke-width: 1.5; stroke-linecap: round"/>
   </g>
   <g id="line2d_15">
    <path d="M 319.854545 148.205455 
L 373.963636 148.205455 
" clip-path="url(#p3c4a35440b)" style="fill: none; stroke: #444444; stroke-width: 1.5; stroke-linecap: round"/>
   </g>
   <g id="line2d_16"/>
   <g id="line2d_17">
    <path d="M 482.181818 148.205455 
L 482.181818 182.569091 
" clip-path="url(#p3c4a35440b)" style="fill: none; stroke: #444444; stroke-width: 1.5; stroke-linecap: round"/>
   </g>
   <g id="line2d_18">
    <path d="M 482.181818 105.250909 
L 482.181818 88.069091 
" clip-path="url(#p3c4a35440b)" style="fill: none; stroke: #444444; stroke-width: 1.5; stroke-linecap: round"/>
   </g>
   <g id="line2d_19">
    <path d="M 455.127273 182.569091 
L 509.236364 182.569091 
" clip-path="url(#p3c4a35440b)" style="fill: none; stroke: #444444; stroke-width: 1.5; stroke-linecap: round"/>
   </g>
   <g id="line2d_20">
    <path d="M 455.127273 88.069091 
L 509.236364 88.069091 
" clip-path="url(#p3c4a35440b)" style="fill: none; stroke: #444444; stroke-width: 1.5; stroke-linecap: round"/>
   </g>
   <g id="line2d_21"/>
   <g id="line2d_22">
    <path d="M 157.527273 285.66 
L 265.745455 285.66 
" clip-path="url(#p3c4a35440b)" style="fill: none; stroke: #444444; stroke-width: 1.5; stroke-linecap: round"/>
   </g>
   <g id="line2d_23">
    <path d="M 292.8 191.16 
L 401.018182 191.16 
" clip-path="url(#p3c4a35440b)" style="fill: none; stroke: #444444; stroke-width: 1.5; stroke-linecap: round"/>
   </g>
   <g id="line2d_24">
    <path d="M 428.072727 131.023636 
L 536.290909 131.023636 
" clip-path="url(#p3c4a35440b)" style="fill: none; stroke: #444444; stroke-width: 1.5; stroke-linecap: round"/>
   </g>
   <g id="patch_6">
    <path d="M 144 304.56 
L 144 77.76 
" style="fill: none; stroke: #ffffff; stroke-width: 1.25; stroke-linejoin: miter; stroke-linecap: square"/>
   </g>
   <g id="patch_7">
    <path d="M 549.818182 304.56 
L 549.818182 77.76 
" style="fill: none; stroke: #ffffff; stroke-width: 1.25; stroke-linejoin: miter; stroke-linecap: square"/>
   </g>
   <g id="patch_8">
    <path d="M 144 304.56 
L 549.818182 304.56 
" style="fill: none; stroke: #ffffff; stroke-width: 1.25; stroke-linejoin: miter; stroke-linecap: square"/>
   </g>
   <g id="patch_9">
    <path d="M 144 77.76 
L 549.818182 77.76 
" style="fill: none; stroke: #ffffff; stroke-width: 1.25; stroke-linejoin: miter; stroke-linecap: square"/>
   </g>
  </g>
  <g id="axes_2">
   <g id="patch_10">
    <path d="M 630.981818 304.56 
L 1036.8 304.56 
L 1036.8 77.76 
L 630.981818 77.76 
z
" style="fill: #eaeaf2"/>
   </g>
   <g id="matplotlib.axis_3">
    <g id="xtick_4">
     <g id="text_12">
      <!-- Iris-setosa -->
      <g style="fill: #262626" transform="translate(673.25201 321.933594)scale(0.11 -0.11)">
       <use xlink:href="#ArialMT-49"/>
       <use xlink:href="#ArialMT-72" x="27.783203"/>
       <use xlink:href="#ArialMT-69" x="61.083984"/>
       <use xlink:href="#ArialMT-73" x="83.300781"/>
       <use xlink:href="#ArialMT-2d" x="133.300781"/>
       <use xlink:href="#ArialMT-73" x="166.601562"/>
       <use xlink:href="#ArialMT-65" x="216.601562"/>
       <use xlink:href="#ArialMT-74" x="272.216797"/>
       <use xlink:href="#ArialMT-6f" x="300"/>
       <use xlink:href="#ArialMT-73" x="355.615234"/>
       <use xlink:href="#ArialMT-61" x="405.615234"/>
      </g>
     </g>
    </g>
    <g id="xtick_5">
     <g id="text_13">
      <!-- Iris-versicolor -->
      <g style="fill: #262626" transform="translate(801.195987 321.933594)scale(0.11 -0.11)">
       <use xlink:href="#ArialMT-49"/>
       <use xlink:href="#ArialMT-72" x="27.783203"/>
       <use xlink:href="#ArialMT-69" x="61.083984"/>
       <use xlink:href="#ArialMT-73" x="83.300781"/>
       <use xlink:href="#ArialMT-2d" x="133.300781"/>
       <use xlink:href="#ArialMT-76" x="166.601562"/>
       <use xlink:href="#ArialMT-65" x="216.601562"/>
       <use xlink:href="#ArialMT-72" x="272.216797"/>
       <use xlink:href="#ArialMT-73" x="305.517578"/>
       <use xlink:href="#ArialMT-69" x="355.517578"/>
       <use xlink:href="#ArialMT-63" x="377.734375"/>
       <use xlink:href="#ArialMT-6f" x="427.734375"/>
       <use xlink:href="#ArialMT-6c" x="483.349609"/>
       <use xlink:href="#ArialMT-6f" x="505.566406"/>
       <use xlink:href="#ArialMT-72" x="561.181641"/>
      </g>
     </g>
    </g>
    <g id="xtick_6">
     <g id="text_14">
      <!-- Iris-virginica -->
      <g style="fill: #262626" transform="translate(939.828011 321.933594)scale(0.11 -0.11)">
       <use xlink:href="#ArialMT-49"/>
       <use xlink:href="#ArialMT-72" x="27.783203"/>
       <use xlink:href="#ArialMT-69" x="61.083984"/>
       <use xlink:href="#ArialMT-73" x="83.300781"/>
       <use xlink:href="#ArialMT-2d" x="133.300781"/>
       <use xlink:href="#ArialMT-76" x="166.601562"/>
       <use xlink:href="#ArialMT-69" x="216.601562"/>
       <use xlink:href="#ArialMT-72" x="238.818359"/>
       <use xlink:href="#ArialMT-67" x="272.119141"/>
       <use xlink:href="#ArialMT-69" x="327.734375"/>
       <use xlink:href="#ArialMT-6e" x="349.951172"/>
       <use xlink:href="#ArialMT-69" x="405.566406"/>
       <use xlink:href="#ArialMT-63" x="427.783203"/>
       <use xlink:href="#ArialMT-61" x="477.783203"/>
      </g>
     </g>
    </g>
    <g id="text_15">
     <!-- species -->
     <g style="fill: #262626" transform="translate(813.548097 336.838125)scale(0.12 -0.12)">
      <use xlink:href="#ArialMT-73"/>
      <use xlink:href="#ArialMT-70" x="50"/>
      <use xlink:href="#ArialMT-65" x="105.615234"/>
      <use xlink:href="#ArialMT-63" x="161.230469"/>
      <use xlink:href="#ArialMT-69" x="211.230469"/>
      <use xlink:href="#ArialMT-65" x="233.447266"/>
      <use xlink:href="#ArialMT-73" x="289.0625"/>
     </g>
    </g>
   </g>
   <g id="matplotlib.axis_4">
    <g id="ytick_7">
     <g id="line2d_25">
      <path d="M 630.981818 294.250909 
L 1036.8 294.250909 
" clip-path="url(#p80e2743703)" style="fill: none; stroke: #ffffff; stroke-linecap: round"/>
     </g>
     <g id="text_16">
      <!-- 1 -->
      <g style="fill: #262626" transform="translate(615.364787 298.187706)scale(0.11 -0.11)">
       <use xlink:href="#ArialMT-31"/>
      </g>
     </g>
    </g>
    <g id="ytick_8">
     <g id="line2d_26">
      <path d="M 630.981818 259.304838 
L 1036.8 259.304838 
" clip-path="url(#p80e2743703)" style="fill: none; stroke: #ffffff; stroke-linecap: round"/>
     </g>
     <g id="text_17">
      <!-- 2 -->
      <g style="fill: #262626" transform="translate(615.364787 263.241635)scale(0.11 -0.11)">
       <use xlink:href="#ArialMT-32"/>
      </g>
     </g>
    </g>
    <g id="ytick_9">
     <g id="line2d_27">
      <path d="M 630.981818 224.358767 
L 1036.8 224.358767 
" clip-path="url(#p80e2743703)" style="fill: none; stroke: #ffffff; stroke-linecap: round"/>
     </g>
     <g id="text_18">
      <!-- 3 -->
      <g style="fill: #262626" transform="translate(615.364787 228.295564)scale(0.11 -0.11)">
       <defs>
        <path id="ArialMT-33" d="M 269 1209 
L 831 1284 
Q 928 806 1161 595 
Q 1394 384 1728 384 
Q 2125 384 2398 659 
Q 2672 934 2672 1341 
Q 2672 1728 2419 1979 
Q 2166 2231 1775 2231 
Q 1616 2231 1378 2169 
L 1441 2663 
Q 1497 2656 1531 2656 
Q 1891 2656 2178 2843 
Q 2466 3031 2466 3422 
Q 2466 3731 2256 3934 
Q 2047 4138 1716 4138 
Q 1388 4138 1169 3931 
Q 950 3725 888 3313 
L 325 3413 
Q 428 3978 793 4289 
Q 1159 4600 1703 4600 
Q 2078 4600 2393 4439 
Q 2709 4278 2876 4000 
Q 3044 3722 3044 3409 
Q 3044 3113 2884 2869 
Q 2725 2625 2413 2481 
Q 2819 2388 3044 2092 
Q 3269 1797 3269 1353 
Q 3269 753 2831 336 
Q 2394 -81 1725 -81 
Q 1122 -81 723 278 
Q 325 638 269 1209 
z
" transform="scale(0.015625)"/>
       </defs>
       <use xlink:href="#ArialMT-33"/>
      </g>
     </g>
    </g>
    <g id="ytick_10">
     <g id="line2d_28">
      <path d="M 630.981818 189.412696 
L 1036.8 189.412696 
" clip-path="url(#p80e2743703)" style="fill: none; stroke: #ffffff; stroke-linecap: round"/>
     </g>
     <g id="text_19">
      <!-- 4 -->
      <g style="fill: #262626" transform="translate(615.364787 193.349493)scale(0.11 -0.11)">
       <defs>
        <path id="ArialMT-34" d="M 2069 0 
L 2069 1097 
L 81 1097 
L 81 1613 
L 2172 4581 
L 2631 4581 
L 2631 1613 
L 3250 1613 
L 3250 1097 
L 2631 1097 
L 2631 0 
L 2069 0 
z
M 2069 1613 
L 2069 3678 
L 634 1613 
L 2069 1613 
z
" transform="scale(0.015625)"/>
       </defs>
       <use xlink:href="#ArialMT-34"/>
      </g>
     </g>
    </g>
    <g id="ytick_11">
     <g id="line2d_29">
      <path d="M 630.981818 154.466626 
L 1036.8 154.466626 
" clip-path="url(#p80e2743703)" style="fill: none; stroke: #ffffff; stroke-linecap: round"/>
     </g>
     <g id="text_20">
      <!-- 5 -->
      <g style="fill: #262626" transform="translate(615.364787 158.403422)scale(0.11 -0.11)">
       <use xlink:href="#ArialMT-35"/>
      </g>
     </g>
    </g>
    <g id="ytick_12">
     <g id="line2d_30">
      <path d="M 630.981818 119.520555 
L 1036.8 119.520555 
" clip-path="url(#p80e2743703)" style="fill: none; stroke: #ffffff; stroke-linecap: round"/>
     </g>
     <g id="text_21">
      <!-- 6 -->
      <g style="fill: #262626" transform="translate(615.364787 123.457352)scale(0.11 -0.11)">
       <defs>
        <path id="ArialMT-36" d="M 3184 3459 
L 2625 3416 
Q 2550 3747 2413 3897 
Q 2184 4138 1850 4138 
Q 1581 4138 1378 3988 
Q 1113 3794 959 3422 
Q 806 3050 800 2363 
Q 1003 2672 1297 2822 
Q 1591 2972 1913 2972 
Q 2475 2972 2870 2558 
Q 3266 2144 3266 1488 
Q 3266 1056 3080 686 
Q 2894 316 2569 119 
Q 2244 -78 1831 -78 
Q 1128 -78 684 439 
Q 241 956 241 2144 
Q 241 3472 731 4075 
Q 1159 4600 1884 4600 
Q 2425 4600 2770 4297 
Q 3116 3994 3184 3459 
z
M 888 1484 
Q 888 1194 1011 928 
Q 1134 663 1356 523 
Q 1578 384 1822 384 
Q 2178 384 2434 671 
Q 2691 959 2691 1453 
Q 2691 1928 2437 2201 
Q 2184 2475 1800 2475 
Q 1419 2475 1153 2201 
Q 888 1928 888 1484 
z
" transform="scale(0.015625)"/>
       </defs>
       <use xlink:href="#ArialMT-36"/>
      </g>
     </g>
    </g>
    <g id="ytick_13">
     <g id="line2d_31">
      <path d="M 630.981818 84.574484 
L 1036.8 84.574484 
" clip-path="url(#p80e2743703)" style="fill: none; stroke: #ffffff; stroke-linecap: round"/>
     </g>
     <g id="text_22">
      <!-- 7 -->
      <g style="fill: #262626" transform="translate(615.364787 88.511281)scale(0.11 -0.11)">
       <defs>
        <path id="ArialMT-37" d="M 303 3981 
L 303 4522 
L 3269 4522 
L 3269 4084 
Q 2831 3619 2401 2847 
Q 1972 2075 1738 1259 
Q 1569 684 1522 0 
L 944 0 
Q 953 541 1156 1306 
Q 1359 2072 1739 2783 
Q 2119 3494 2547 3981 
L 303 3981 
z
" transform="scale(0.015625)"/>
       </defs>
       <use xlink:href="#ArialMT-37"/>
      </g>
     </g>
    </g>
    <g id="text_23">
     <!-- petal_length -->
     <g style="fill: #262626" transform="translate(608.839162 223.8525)rotate(-90)scale(0.12 -0.12)">
      <use xlink:href="#ArialMT-70"/>
      <use xlink:href="#ArialMT-65" x="55.615234"/>
      <use xlink:href="#ArialMT-74" x="111.230469"/>
      <use xlink:href="#ArialMT-61" x="139.013672"/>
      <use xlink:href="#ArialMT-6c" x="194.628906"/>
      <use xlink:href="#ArialMT-5f" x="216.845703"/>
      <use xlink:href="#ArialMT-6c" x="272.460938"/>
      <use xlink:href="#ArialMT-65" x="294.677734"/>
      <use xlink:href="#ArialMT-6e" x="350.292969"/>
      <use xlink:href="#ArialMT-67" x="405.908203"/>
      <use xlink:href="#ArialMT-74" x="461.523438"/>
      <use xlink:href="#ArialMT-68" x="489.306641"/>
     </g>
    </g>
   </g>
   <g id="patch_11">
    <path d="M 644.509091 280.272481 
L 752.727273 280.272481 
L 752.727273 274.156918 
L 644.509091 274.156918 
L 644.509091 280.272481 
z
" clip-path="url(#p80e2743703)" style="fill: #e68193; stroke: #444444; stroke-width: 1.5; stroke-linejoin: miter"/>
   </g>
   <g id="patch_12">
    <path d="M 779.781818 189.412696 
L 888 189.412696 
L 888 168.445054 
L 779.781818 168.445054 
L 779.781818 189.412696 
z
" clip-path="url(#p80e2743703)" style="fill: #aa8f43; stroke: #444444; stroke-width: 1.5; stroke-linejoin: miter"/>
   </g>
   <g id="patch_13">
    <path d="M 915.054545 150.972018 
L 1023.272727 150.972018 
L 1023.272727 123.888814 
L 915.054545 123.888814 
L 915.054545 150.972018 
z
" clip-path="url(#p80e2743703)" style="fill: #58a141; stroke: #444444; stroke-width: 1.5; stroke-linejoin: miter"/>
   </g>
   <g id="line2d_32">
    <path d="M 698.618182 280.272481 
L 698.618182 287.261695 
" clip-path="url(#p80e2743703)" style="fill: none; stroke: #444444; stroke-width: 1.5; stroke-linecap: round"/>
   </g>
   <g id="line2d_33">
    <path d="M 698.618182 274.156918 
L 698.618182 269.788659 
" clip-path="url(#p80e2743703)" style="fill: none; stroke: #444444; stroke-width: 1.5; stroke-linecap: round"/>
   </g>
   <g id="line2d_34">
    <path d="M 671.563636 287.261695 
L 725.672727 287.261695 
" clip-path="url(#p80e2743703)" style="fill: none; stroke: #444444; stroke-width: 1.5; stroke-linecap: round"/>
   </g>
   <g id="line2d_35">
    <path d="M 671.563636 269.788659 
L 725.672727 269.788659 
" clip-path="url(#p80e2743703)" style="fill: none; stroke: #444444; stroke-width: 1.5; stroke-linecap: round"/>
   </g>
   <g id="line2d_36">
    <g clip-path="url(#p80e2743703)">
     <use xlink:href="#m1257350798" x="698.618182" y="290.756302" style="fill: #444444; stroke: #444444; stroke-linejoin: miter"/>
     <use xlink:href="#m1257350798" x="698.618182" y="294.250909" style="fill: #444444; stroke: #444444; stroke-linejoin: miter"/>
     <use xlink:href="#m1257350798" x="698.618182" y="262.799445" style="fill: #444444; stroke: #444444; stroke-linejoin: miter"/>
     <use xlink:href="#m1257350798" x="698.618182" y="262.799445" style="fill: #444444; stroke: #444444; stroke-linejoin: miter"/>
    </g>
   </g>
   <g id="line2d_37">
    <path d="M 833.890909 189.412696 
L 833.890909 213.874946 
" clip-path="url(#p80e2743703)" style="fill: none; stroke: #444444; stroke-width: 1.5; stroke-linecap: round"/>
   </g>
   <g id="line2d_38">
    <path d="M 833.890909 168.445054 
L 833.890909 150.972018 
" clip-path="url(#p80e2743703)" style="fill: none; stroke: #444444; stroke-width: 1.5; stroke-linecap: round"/>
   </g>
   <g id="line2d_39">
    <path d="M 806.836364 213.874946 
L 860.945455 213.874946 
" clip-path="url(#p80e2743703)" style="fill: none; stroke: #444444; stroke-width: 1.5; stroke-linecap: round"/>
   </g>
   <g id="line2d_40">
    <path d="M 806.836364 150.972018 
L 860.945455 150.972018 
" clip-path="url(#p80e2743703)" style="fill: none; stroke: #444444; stroke-width: 1.5; stroke-linecap: round"/>
   </g>
   <g id="line2d_41">
    <g clip-path="url(#p80e2743703)">
     <use xlink:href="#m1257350798" x="833.890909" y="224.358767" style="fill: #444444; stroke: #444444; stroke-linejoin: miter"/>
    </g>
   </g>
   <g id="line2d_42">
    <path d="M 969.163636 150.972018 
L 969.163636 171.939661 
" clip-path="url(#p80e2743703)" style="fill: none; stroke: #444444; stroke-width: 1.5; stroke-linecap: round"/>
   </g>
   <g id="line2d_43">
    <path d="M 969.163636 123.888814 
L 969.163636 88.069091 
" clip-path="url(#p80e2743703)" style="fill: none; stroke: #444444; stroke-width: 1.5; stroke-linecap: round"/>
   </g>
   <g id="line2d_44">
    <path d="M 942.109091 171.939661 
L 996.218182 171.939661 
" clip-path="url(#p80e2743703)" style="fill: none; stroke: #444444; stroke-width: 1.5; stroke-linecap: round"/>
   </g>
   <g id="line2d_45">
    <path d="M 942.109091 88.069091 
L 996.218182 88.069091 
" clip-path="url(#p80e2743703)" style="fill: none; stroke: #444444; stroke-width: 1.5; stroke-linecap: round"/>
   </g>
   <g id="line2d_46"/>
   <g id="line2d_47">
    <path d="M 644.509091 276.777874 
L 752.727273 276.777874 
" clip-path="url(#p80e2743703)" style="fill: none; stroke: #444444; stroke-width: 1.5; stroke-linecap: round"/>
   </g>
   <g id="line2d_48">
    <path d="M 779.781818 177.181572 
L 888 177.181572 
" clip-path="url(#p80e2743703)" style="fill: none; stroke: #444444; stroke-width: 1.5; stroke-linecap: round"/>
   </g>
   <g id="line2d_49">
    <path d="M 915.054545 135.246287 
L 1023.272727 135.246287 
" clip-path="url(#p80e2743703)" style="fill: none; stroke: #444444; stroke-width: 1.5; stroke-linecap: round"/>
   </g>
   <g id="patch_14">
    <path d="M 630.981818 304.56 
L 630.981818 77.76 
" style="fill: none; stroke: #ffffff; stroke-width: 1.25; stroke-linejoin: miter; stroke-linecap: square"/>
   </g>
   <g id="patch_15">
    <path d="M 1036.8 304.56 
L 1036.8 77.76 
" style="fill: none; stroke: #ffffff; stroke-width: 1.25; stroke-linejoin: miter; stroke-linecap: square"/>
   </g>
   <g id="patch_16">
    <path d="M 630.981818 304.56 
L 1036.8 304.56 
" style="fill: none; stroke: #ffffff; stroke-width: 1.25; stroke-linejoin: miter; stroke-linecap: square"/>
   </g>
   <g id="patch_17">
    <path d="M 630.981818 77.76 
L 1036.8 77.76 
" style="fill: none; stroke: #ffffff; stroke-width: 1.25; stroke-linejoin: miter; stroke-linecap: square"/>
   </g>
  </g>
  <g id="axes_3">
   <g id="patch_18">
    <path d="M 144 576.72 
L 549.818182 576.72 
L 549.818182 349.92 
L 144 349.92 
z
" style="fill: #eaeaf2"/>
   </g>
   <g id="matplotlib.axis_5">
    <g id="xtick_7">
     <g id="text_24">
      <!-- Iris-setosa -->
      <g style="fill: #262626" transform="translate(186.270192 594.093594)scale(0.11 -0.11)">
       <use xlink:href="#ArialMT-49"/>
       <use xlink:href="#ArialMT-72" x="27.783203"/>
       <use xlink:href="#ArialMT-69" x="61.083984"/>
       <use xlink:href="#ArialMT-73" x="83.300781"/>
       <use xlink:href="#ArialMT-2d" x="133.300781"/>
       <use xlink:href="#ArialMT-73" x="166.601562"/>
       <use xlink:href="#ArialMT-65" x="216.601562"/>
       <use xlink:href="#ArialMT-74" x="272.216797"/>
       <use xlink:href="#ArialMT-6f" x="300"/>
       <use xlink:href="#ArialMT-73" x="355.615234"/>
       <use xlink:href="#ArialMT-61" x="405.615234"/>
      </g>
     </g>
    </g>
    <g id="xtick_8">
     <g id="text_25">
      <!-- Iris-versicolor -->
      <g style="fill: #262626" transform="translate(314.214169 594.093594)scale(0.11 -0.11)">
       <use xlink:href="#ArialMT-49"/>
       <use xlink:href="#ArialMT-72" x="27.783203"/>
       <use xlink:href="#ArialMT-69" x="61.083984"/>
       <use xlink:href="#ArialMT-73" x="83.300781"/>
       <use xlink:href="#ArialMT-2d" x="133.300781"/>
       <use xlink:href="#ArialMT-76" x="166.601562"/>
       <use xlink:href="#ArialMT-65" x="216.601562"/>
       <use xlink:href="#ArialMT-72" x="272.216797"/>
       <use xlink:href="#ArialMT-73" x="305.517578"/>
       <use xlink:href="#ArialMT-69" x="355.517578"/>
       <use xlink:href="#ArialMT-63" x="377.734375"/>
       <use xlink:href="#ArialMT-6f" x="427.734375"/>
       <use xlink:href="#ArialMT-6c" x="483.349609"/>
       <use xlink:href="#ArialMT-6f" x="505.566406"/>
       <use xlink:href="#ArialMT-72" x="561.181641"/>
      </g>
     </g>
    </g>
    <g id="xtick_9">
     <g id="text_26">
      <!-- Iris-virginica -->
      <g style="fill: #262626" transform="translate(452.846193 594.093594)scale(0.11 -0.11)">
       <use xlink:href="#ArialMT-49"/>
       <use xlink:href="#ArialMT-72" x="27.783203"/>
       <use xlink:href="#ArialMT-69" x="61.083984"/>
       <use xlink:href="#ArialMT-73" x="83.300781"/>
       <use xlink:href="#ArialMT-2d" x="133.300781"/>
       <use xlink:href="#ArialMT-76" x="166.601562"/>
       <use xlink:href="#ArialMT-69" x="216.601562"/>
       <use xlink:href="#ArialMT-72" x="238.818359"/>
       <use xlink:href="#ArialMT-67" x="272.119141"/>
       <use xlink:href="#ArialMT-69" x="327.734375"/>
       <use xlink:href="#ArialMT-6e" x="349.951172"/>
       <use xlink:href="#ArialMT-69" x="405.566406"/>
       <use xlink:href="#ArialMT-63" x="427.783203"/>
       <use xlink:href="#ArialMT-61" x="477.783203"/>
      </g>
     </g>
    </g>
    <g id="text_27">
     <!-- species -->
     <g style="fill: #262626" transform="translate(326.566278 608.998125)scale(0.12 -0.12)">
      <use xlink:href="#ArialMT-73"/>
      <use xlink:href="#ArialMT-70" x="50"/>
      <use xlink:href="#ArialMT-65" x="105.615234"/>
      <use xlink:href="#ArialMT-63" x="161.230469"/>
      <use xlink:href="#ArialMT-69" x="211.230469"/>
      <use xlink:href="#ArialMT-65" x="233.447266"/>
      <use xlink:href="#ArialMT-73" x="289.0625"/>
     </g>
    </g>
   </g>
   <g id="matplotlib.axis_6">
    <g id="ytick_14">
     <g id="line2d_50">
      <path d="M 144 554.956364 
L 549.818182 554.956364 
" clip-path="url(#pfe4b534070)" style="fill: none; stroke: #ffffff; stroke-linecap: round"/>
     </g>
     <g id="text_28">
      <!-- 4.5 -->
      <g style="fill: #262626" transform="translate(119.21 558.893161)scale(0.11 -0.11)">
       <use xlink:href="#ArialMT-34"/>
       <use xlink:href="#ArialMT-2e" x="55.615234"/>
       <use xlink:href="#ArialMT-35" x="83.398438"/>
      </g>
     </g>
    </g>
    <g id="ytick_15">
     <g id="line2d_51">
      <path d="M 144 526.32 
L 549.818182 526.32 
" clip-path="url(#pfe4b534070)" style="fill: none; stroke: #ffffff; stroke-linecap: round"/>
     </g>
     <g id="text_29">
      <!-- 5.0 -->
      <g style="fill: #262626" transform="translate(119.21 530.256797)scale(0.11 -0.11)">
       <use xlink:href="#ArialMT-35"/>
       <use xlink:href="#ArialMT-2e" x="55.615234"/>
       <use xlink:href="#ArialMT-30" x="83.398438"/>
      </g>
     </g>
    </g>
    <g id="ytick_16">
     <g id="line2d_52">
      <path d="M 144 497.683636 
L 549.818182 497.683636 
" clip-path="url(#pfe4b534070)" style="fill: none; stroke: #ffffff; stroke-linecap: round"/>
     </g>
     <g id="text_30">
      <!-- 5.5 -->
      <g style="fill: #262626" transform="translate(119.21 501.620433)scale(0.11 -0.11)">
       <use xlink:href="#ArialMT-35"/>
       <use xlink:href="#ArialMT-2e" x="55.615234"/>
       <use xlink:href="#ArialMT-35" x="83.398438"/>
      </g>
     </g>
    </g>
    <g id="ytick_17">
     <g id="line2d_53">
      <path d="M 144 469.047273 
L 549.818182 469.047273 
" clip-path="url(#pfe4b534070)" style="fill: none; stroke: #ffffff; stroke-linecap: round"/>
     </g>
     <g id="text_31">
      <!-- 6.0 -->
      <g style="fill: #262626" transform="translate(119.21 472.98407)scale(0.11 -0.11)">
       <use xlink:href="#ArialMT-36"/>
       <use xlink:href="#ArialMT-2e" x="55.615234"/>
       <use xlink:href="#ArialMT-30" x="83.398438"/>
      </g>
     </g>
    </g>
    <g id="ytick_18">
     <g id="line2d_54">
      <path d="M 144 440.410909 
L 549.818182 440.410909 
" clip-path="url(#pfe4b534070)" style="fill: none; stroke: #ffffff; stroke-linecap: round"/>
     </g>
     <g id="text_32">
      <!-- 6.5 -->
      <g style="fill: #262626" transform="translate(119.21 444.347706)scale(0.11 -0.11)">
       <use xlink:href="#ArialMT-36"/>
       <use xlink:href="#ArialMT-2e" x="55.615234"/>
       <use xlink:href="#ArialMT-35" x="83.398438"/>
      </g>
     </g>
    </g>
    <g id="ytick_19">
     <g id="line2d_55">
      <path d="M 144 411.774545 
L 549.818182 411.774545 
" clip-path="url(#pfe4b534070)" style="fill: none; stroke: #ffffff; stroke-linecap: round"/>
     </g>
     <g id="text_33">
      <!-- 7.0 -->
      <g style="fill: #262626" transform="translate(119.21 415.711342)scale(0.11 -0.11)">
       <use xlink:href="#ArialMT-37"/>
       <use xlink:href="#ArialMT-2e" x="55.615234"/>
       <use xlink:href="#ArialMT-30" x="83.398438"/>
      </g>
     </g>
    </g>
    <g id="ytick_20">
     <g id="line2d_56">
      <path d="M 144 383.138182 
L 549.818182 383.138182 
" clip-path="url(#pfe4b534070)" style="fill: none; stroke: #ffffff; stroke-linecap: round"/>
     </g>
     <g id="text_34">
      <!-- 7.5 -->
      <g style="fill: #262626" transform="translate(119.21 387.074979)scale(0.11 -0.11)">
       <use xlink:href="#ArialMT-37"/>
       <use xlink:href="#ArialMT-2e" x="55.615234"/>
       <use xlink:href="#ArialMT-35" x="83.398438"/>
      </g>
     </g>
    </g>
    <g id="ytick_21">
     <g id="line2d_57">
      <path d="M 144 354.501818 
L 549.818182 354.501818 
" clip-path="url(#pfe4b534070)" style="fill: none; stroke: #ffffff; stroke-linecap: round"/>
     </g>
     <g id="text_35">
      <!-- 8.0 -->
      <g style="fill: #262626" transform="translate(119.21 358.438615)scale(0.11 -0.11)">
       <defs>
        <path id="ArialMT-38" d="M 1131 2484 
Q 781 2613 612 2850 
Q 444 3088 444 3419 
Q 444 3919 803 4259 
Q 1163 4600 1759 4600 
Q 2359 4600 2725 4251 
Q 3091 3903 3091 3403 
Q 3091 3084 2923 2848 
Q 2756 2613 2416 2484 
Q 2838 2347 3058 2040 
Q 3278 1734 3278 1309 
Q 3278 722 2862 322 
Q 2447 -78 1769 -78 
Q 1091 -78 675 323 
Q 259 725 259 1325 
Q 259 1772 486 2073 
Q 713 2375 1131 2484 
z
M 1019 3438 
Q 1019 3113 1228 2906 
Q 1438 2700 1772 2700 
Q 2097 2700 2305 2904 
Q 2513 3109 2513 3406 
Q 2513 3716 2298 3927 
Q 2084 4138 1766 4138 
Q 1444 4138 1231 3931 
Q 1019 3725 1019 3438 
z
M 838 1322 
Q 838 1081 952 856 
Q 1066 631 1291 507 
Q 1516 384 1775 384 
Q 2178 384 2440 643 
Q 2703 903 2703 1303 
Q 2703 1709 2433 1975 
Q 2163 2241 1756 2241 
Q 1359 2241 1098 1978 
Q 838 1716 838 1322 
z
" transform="scale(0.015625)"/>
       </defs>
       <use xlink:href="#ArialMT-38"/>
       <use xlink:href="#ArialMT-2e" x="55.615234"/>
       <use xlink:href="#ArialMT-30" x="83.398438"/>
      </g>
     </g>
    </g>
    <g id="text_36">
     <!-- sepal_length -->
     <g style="fill: #262626" transform="translate(112.684375 497.345625)rotate(-90)scale(0.12 -0.12)">
      <use xlink:href="#ArialMT-73"/>
      <use xlink:href="#ArialMT-65" x="50"/>
      <use xlink:href="#ArialMT-70" x="105.615234"/>
      <use xlink:href="#ArialMT-61" x="161.230469"/>
      <use xlink:href="#ArialMT-6c" x="216.845703"/>
      <use xlink:href="#ArialMT-5f" x="239.0625"/>
      <use xlink:href="#ArialMT-6c" x="294.677734"/>
      <use xlink:href="#ArialMT-65" x="316.894531"/>
      <use xlink:href="#ArialMT-6e" x="372.509766"/>
      <use xlink:href="#ArialMT-67" x="428.125"/>
      <use xlink:href="#ArialMT-74" x="483.740234"/>
      <use xlink:href="#ArialMT-68" x="511.523438"/>
     </g>
    </g>
   </g>
   <g id="patch_19">
    <path d="M 157.527273 537.774545 
L 265.745455 537.774545 
L 265.745455 514.865455 
L 157.527273 514.865455 
L 157.527273 537.774545 
z
" clip-path="url(#pfe4b534070)" style="fill: #e68193; stroke: #444444; stroke-width: 1.5; stroke-linejoin: miter"/>
   </g>
   <g id="patch_20">
    <path d="M 292.8 491.956364 
L 401.018182 491.956364 
L 401.018182 451.865455 
L 292.8 451.865455 
L 292.8 491.956364 
z
" clip-path="url(#pfe4b534070)" style="fill: #aa8f43; stroke: #444444; stroke-width: 1.5; stroke-linejoin: miter"/>
   </g>
   <g id="patch_21">
    <path d="M 428.072727 456.160909 
L 536.290909 456.160909 
L 536.290909 417.501818 
L 428.072727 417.501818 
L 428.072727 456.160909 
z
" clip-path="url(#pfe4b534070)" style="fill: #58a141; stroke: #444444; stroke-width: 1.5; stroke-linejoin: miter"/>
   </g>
   <g id="line2d_58">
    <path d="M 211.636364 537.774545 
L 211.636364 566.410909 
" clip-path="url(#pfe4b534070)" style="fill: none; stroke: #444444; stroke-width: 1.5; stroke-linecap: round"/>
   </g>
   <g id="line2d_59">
    <path d="M 211.636364 514.865455 
L 211.636364 480.501818 
" clip-path="url(#pfe4b534070)" style="fill: none; stroke: #444444; stroke-width: 1.5; stroke-linecap: round"/>
   </g>
   <g id="line2d_60">
    <path d="M 184.581818 566.410909 
L 238.690909 566.410909 
" clip-path="url(#pfe4b534070)" style="fill: none; stroke: #444444; stroke-width: 1.5; stroke-linecap: round"/>
   </g>
   <g id="line2d_61">
    <path d="M 184.581818 480.501818 
L 238.690909 480.501818 
" clip-path="url(#pfe4b534070)" style="fill: none; stroke: #444444; stroke-width: 1.5; stroke-linecap: round"/>
   </g>
   <g id="line2d_62"/>
   <g id="line2d_63">
    <path d="M 346.909091 491.956364 
L 346.909091 532.047273 
" clip-path="url(#pfe4b534070)" style="fill: none; stroke: #444444; stroke-width: 1.5; stroke-linecap: round"/>
   </g>
   <g id="line2d_64">
    <path d="M 346.909091 451.865455 
L 346.909091 411.774545 
" clip-path="url(#pfe4b534070)" style="fill: none; stroke: #444444; stroke-width: 1.5; stroke-linecap: round"/>
   </g>
   <g id="line2d_65">
    <path d="M 319.854545 532.047273 
L 373.963636 532.047273 
" clip-path="url(#pfe4b534070)" style="fill: none; stroke: #444444; stroke-width: 1.5; stroke-linecap: round"/>
   </g>
   <g id="line2d_66">
    <path d="M 319.854545 411.774545 
L 373.963636 411.774545 
" clip-path="url(#pfe4b534070)" style="fill: none; stroke: #444444; stroke-width: 1.5; stroke-linecap: round"/>
   </g>
   <g id="line2d_67"/>
   <g id="line2d_68">
    <path d="M 482.181818 456.160909 
L 482.181818 491.956364 
" clip-path="url(#pfe4b534070)" style="fill: none; stroke: #444444; stroke-width: 1.5; stroke-linecap: round"/>
   </g>
   <g id="line2d_69">
    <path d="M 482.181818 417.501818 
L 482.181818 360.229091 
" clip-path="url(#pfe4b534070)" style="fill: none; stroke: #444444; stroke-width: 1.5; stroke-linecap: round"/>
   </g>
   <g id="line2d_70">
    <path d="M 455.127273 491.956364 
L 509.236364 491.956364 
" clip-path="url(#pfe4b534070)" style="fill: none; stroke: #444444; stroke-width: 1.5; stroke-linecap: round"/>
   </g>
   <g id="line2d_71">
    <path d="M 455.127273 360.229091 
L 509.236364 360.229091 
" clip-path="url(#pfe4b534070)" style="fill: none; stroke: #444444; stroke-width: 1.5; stroke-linecap: round"/>
   </g>
   <g id="line2d_72">
    <g clip-path="url(#pfe4b534070)">
     <use xlink:href="#m1257350798" x="482.181818" y="532.047273" style="fill: #444444; stroke: #444444; stroke-linejoin: miter"/>
    </g>
   </g>
   <g id="line2d_73">
    <path d="M 157.527273 526.32 
L 265.745455 526.32 
" clip-path="url(#pfe4b534070)" style="fill: none; stroke: #444444; stroke-width: 1.5; stroke-linecap: round"/>
   </g>
   <g id="line2d_74">
    <path d="M 292.8 474.774545 
L 401.018182 474.774545 
" clip-path="url(#pfe4b534070)" style="fill: none; stroke: #444444; stroke-width: 1.5; stroke-linecap: round"/>
   </g>
   <g id="line2d_75">
    <path d="M 428.072727 440.410909 
L 536.290909 440.410909 
" clip-path="url(#pfe4b534070)" style="fill: none; stroke: #444444; stroke-width: 1.5; stroke-linecap: round"/>
   </g>
   <g id="patch_22">
    <path d="M 144 576.72 
L 144 349.92 
" style="fill: none; stroke: #ffffff; stroke-width: 1.25; stroke-linejoin: miter; stroke-linecap: square"/>
   </g>
   <g id="patch_23">
    <path d="M 549.818182 576.72 
L 549.818182 349.92 
" style="fill: none; stroke: #ffffff; stroke-width: 1.25; stroke-linejoin: miter; stroke-linecap: square"/>
   </g>
   <g id="patch_24">
    <path d="M 144 576.72 
L 549.818182 576.72 
" style="fill: none; stroke: #ffffff; stroke-width: 1.25; stroke-linejoin: miter; stroke-linecap: square"/>
   </g>
   <g id="patch_25">
    <path d="M 144 349.92 
L 549.818182 349.92 
" style="fill: none; stroke: #ffffff; stroke-width: 1.25; stroke-linejoin: miter; stroke-linecap: square"/>
   </g>
  </g>
  <g id="axes_4">
   <g id="patch_26">
    <path d="M 630.981818 576.72 
L 1036.8 576.72 
L 1036.8 349.92 
L 630.981818 349.92 
z
" style="fill: #eaeaf2"/>
   </g>
   <g id="matplotlib.axis_7">
    <g id="xtick_10">
     <g id="text_37">
      <!-- Iris-setosa -->
      <g style="fill: #262626" transform="translate(673.25201 594.093594)scale(0.11 -0.11)">
       <use xlink:href="#ArialMT-49"/>
       <use xlink:href="#ArialMT-72" x="27.783203"/>
       <use xlink:href="#ArialMT-69" x="61.083984"/>
       <use xlink:href="#ArialMT-73" x="83.300781"/>
       <use xlink:href="#ArialMT-2d" x="133.300781"/>
       <use xlink:href="#ArialMT-73" x="166.601562"/>
       <use xlink:href="#ArialMT-65" x="216.601562"/>
       <use xlink:href="#ArialMT-74" x="272.216797"/>
       <use xlink:href="#ArialMT-6f" x="300"/>
       <use xlink:href="#ArialMT-73" x="355.615234"/>
       <use xlink:href="#ArialMT-61" x="405.615234"/>
      </g>
     </g>
    </g>
    <g id="xtick_11">
     <g id="text_38">
      <!-- Iris-versicolor -->
      <g style="fill: #262626" transform="translate(801.195987 594.093594)scale(0.11 -0.11)">
       <use xlink:href="#ArialMT-49"/>
       <use xlink:href="#ArialMT-72" x="27.783203"/>
       <use xlink:href="#ArialMT-69" x="61.083984"/>
       <use xlink:href="#ArialMT-73" x="83.300781"/>
       <use xlink:href="#ArialMT-2d" x="133.300781"/>
       <use xlink:href="#ArialMT-76" x="166.601562"/>
       <use xlink:href="#ArialMT-65" x="216.601562"/>
       <use xlink:href="#ArialMT-72" x="272.216797"/>
       <use xlink:href="#ArialMT-73" x="305.517578"/>
       <use xlink:href="#ArialMT-69" x="355.517578"/>
       <use xlink:href="#ArialMT-63" x="377.734375"/>
       <use xlink:href="#ArialMT-6f" x="427.734375"/>
       <use xlink:href="#ArialMT-6c" x="483.349609"/>
       <use xlink:href="#ArialMT-6f" x="505.566406"/>
       <use xlink:href="#ArialMT-72" x="561.181641"/>
      </g>
     </g>
    </g>
    <g id="xtick_12">
     <g id="text_39">
      <!-- Iris-virginica -->
      <g style="fill: #262626" transform="translate(939.828011 594.093594)scale(0.11 -0.11)">
       <use xlink:href="#ArialMT-49"/>
       <use xlink:href="#ArialMT-72" x="27.783203"/>
       <use xlink:href="#ArialMT-69" x="61.083984"/>
       <use xlink:href="#ArialMT-73" x="83.300781"/>
       <use xlink:href="#ArialMT-2d" x="133.300781"/>
       <use xlink:href="#ArialMT-76" x="166.601562"/>
       <use xlink:href="#ArialMT-69" x="216.601562"/>
       <use xlink:href="#ArialMT-72" x="238.818359"/>
       <use xlink:href="#ArialMT-67" x="272.119141"/>
       <use xlink:href="#ArialMT-69" x="327.734375"/>
       <use xlink:href="#ArialMT-6e" x="349.951172"/>
       <use xlink:href="#ArialMT-69" x="405.566406"/>
       <use xlink:href="#ArialMT-63" x="427.783203"/>
       <use xlink:href="#ArialMT-61" x="477.783203"/>
      </g>
     </g>
    </g>
    <g id="text_40">
     <!-- species -->
     <g style="fill: #262626" transform="translate(813.548097 608.998125)scale(0.12 -0.12)">
      <use xlink:href="#ArialMT-73"/>
      <use xlink:href="#ArialMT-70" x="50"/>
      <use xlink:href="#ArialMT-65" x="105.615234"/>
      <use xlink:href="#ArialMT-63" x="161.230469"/>
      <use xlink:href="#ArialMT-69" x="211.230469"/>
      <use xlink:href="#ArialMT-65" x="233.447266"/>
      <use xlink:href="#ArialMT-73" x="289.0625"/>
     </g>
    </g>
   </g>
   <g id="matplotlib.axis_8">
    <g id="ytick_22">
     <g id="line2d_76">
      <path d="M 630.981818 566.410909 
L 1036.8 566.410909 
" clip-path="url(#p1350113ce9)" style="fill: none; stroke: #ffffff; stroke-linecap: round"/>
     </g>
     <g id="text_41">
      <!-- 2.0 -->
      <g style="fill: #262626" transform="translate(606.191818 570.347706)scale(0.11 -0.11)">
       <use xlink:href="#ArialMT-32"/>
       <use xlink:href="#ArialMT-2e" x="55.615234"/>
       <use xlink:href="#ArialMT-30" x="83.398438"/>
      </g>
     </g>
    </g>
    <g id="ytick_23">
     <g id="line2d_77">
      <path d="M 630.981818 523.456364 
L 1036.8 523.456364 
" clip-path="url(#p1350113ce9)" style="fill: none; stroke: #ffffff; stroke-linecap: round"/>
     </g>
     <g id="text_42">
      <!-- 2.5 -->
      <g style="fill: #262626" transform="translate(606.191818 527.393161)scale(0.11 -0.11)">
       <use xlink:href="#ArialMT-32"/>
       <use xlink:href="#ArialMT-2e" x="55.615234"/>
       <use xlink:href="#ArialMT-35" x="83.398438"/>
      </g>
     </g>
    </g>
    <g id="ytick_24">
     <g id="line2d_78">
      <path d="M 630.981818 480.501818 
L 1036.8 480.501818 
" clip-path="url(#p1350113ce9)" style="fill: none; stroke: #ffffff; stroke-linecap: round"/>
     </g>
     <g id="text_43">
      <!-- 3.0 -->
      <g style="fill: #262626" transform="translate(606.191818 484.438615)scale(0.11 -0.11)">
       <use xlink:href="#ArialMT-33"/>
       <use xlink:href="#ArialMT-2e" x="55.615234"/>
       <use xlink:href="#ArialMT-30" x="83.398438"/>
      </g>
     </g>
    </g>
    <g id="ytick_25">
     <g id="line2d_79">
      <path d="M 630.981818 437.547273 
L 1036.8 437.547273 
" clip-path="url(#p1350113ce9)" style="fill: none; stroke: #ffffff; stroke-linecap: round"/>
     </g>
     <g id="text_44">
      <!-- 3.5 -->
      <g style="fill: #262626" transform="translate(606.191818 441.48407)scale(0.11 -0.11)">
       <use xlink:href="#ArialMT-33"/>
       <use xlink:href="#ArialMT-2e" x="55.615234"/>
       <use xlink:href="#ArialMT-35" x="83.398438"/>
      </g>
     </g>
    </g>
    <g id="ytick_26">
     <g id="line2d_80">
      <path d="M 630.981818 394.592727 
L 1036.8 394.592727 
" clip-path="url(#p1350113ce9)" style="fill: none; stroke: #ffffff; stroke-linecap: round"/>
     </g>
     <g id="text_45">
      <!-- 4.0 -->
      <g style="fill: #262626" transform="translate(606.191818 398.529524)scale(0.11 -0.11)">
       <use xlink:href="#ArialMT-34"/>
       <use xlink:href="#ArialMT-2e" x="55.615234"/>
       <use xlink:href="#ArialMT-30" x="83.398438"/>
      </g>
     </g>
    </g>
    <g id="ytick_27">
     <g id="line2d_81">
      <path d="M 630.981818 351.638182 
L 1036.8 351.638182 
" clip-path="url(#p1350113ce9)" style="fill: none; stroke: #ffffff; stroke-linecap: round"/>
     </g>
     <g id="text_46">
      <!-- 4.5 -->
      <g style="fill: #262626" transform="translate(606.191818 355.574979)scale(0.11 -0.11)">
       <use xlink:href="#ArialMT-34"/>
       <use xlink:href="#ArialMT-2e" x="55.615234"/>
       <use xlink:href="#ArialMT-35" x="83.398438"/>
      </g>
     </g>
    </g>
    <g id="text_47">
     <!-- sepal_width -->
     <g style="fill: #262626" transform="translate(599.806818 495.005625)rotate(-90)scale(0.12 -0.12)">
      <use xlink:href="#ArialMT-73"/>
      <use xlink:href="#ArialMT-65" x="50"/>
      <use xlink:href="#ArialMT-70" x="105.615234"/>
      <use xlink:href="#ArialMT-61" x="161.230469"/>
      <use xlink:href="#ArialMT-6c" x="216.845703"/>
      <use xlink:href="#ArialMT-5f" x="239.0625"/>
      <use xlink:href="#ArialMT-77" x="294.677734"/>
      <use xlink:href="#ArialMT-69" x="366.894531"/>
      <use xlink:href="#ArialMT-64" x="389.111328"/>
      <use xlink:href="#ArialMT-74" x="444.726562"/>
      <use xlink:href="#ArialMT-68" x="472.509766"/>
     </g>
    </g>
   </g>
   <g id="patch_27">
    <path d="M 644.509091 469.763182 
L 752.727273 469.763182 
L 752.727273 422.513182 
L 644.509091 422.513182 
L 644.509091 469.763182 
z
" clip-path="url(#p1350113ce9)" style="fill: #e68193; stroke: #444444; stroke-width: 1.5; stroke-linejoin: miter"/>
   </g>
   <g id="patch_28">
    <path d="M 779.781818 521.308636 
L 888 521.308636 
L 888 480.501818 
L 779.781818 480.501818 
L 779.781818 521.308636 
z
" clip-path="url(#p1350113ce9)" style="fill: #aa8f43; stroke: #444444; stroke-width: 1.5; stroke-linejoin: miter"/>
   </g>
   <g id="patch_29">
    <path d="M 915.054545 497.683636 
L 1023.272727 497.683636 
L 1023.272727 465.467727 
L 915.054545 465.467727 
L 915.054545 497.683636 
z
" clip-path="url(#p1350113ce9)" style="fill: #58a141; stroke: #444444; stroke-width: 1.5; stroke-linejoin: miter"/>
   </g>
   <g id="line2d_82">
    <path d="M 698.618182 469.763182 
L 698.618182 540.638182 
" clip-path="url(#p1350113ce9)" style="fill: none; stroke: #444444; stroke-width: 1.5; stroke-linecap: round"/>
   </g>
   <g id="line2d_83">
    <path d="M 698.618182 422.513182 
L 698.618182 360.229091 
" clip-path="url(#p1350113ce9)" style="fill: none; stroke: #444444; stroke-width: 1.5; stroke-linecap: round"/>
   </g>
   <g id="line2d_84">
    <path d="M 671.563636 540.638182 
L 725.672727 540.638182 
" clip-path="url(#p1350113ce9)" style="fill: none; stroke: #444444; stroke-width: 1.5; stroke-linecap: round"/>
   </g>
   <g id="line2d_85">
    <path d="M 671.563636 360.229091 
L 725.672727 360.229091 
" clip-path="url(#p1350113ce9)" style="fill: none; stroke: #444444; stroke-width: 1.5; stroke-linecap: round"/>
   </g>
   <g id="line2d_86"/>
   <g id="line2d_87">
    <path d="M 833.890909 521.308636 
L 833.890909 566.410909 
" clip-path="url(#p1350113ce9)" style="fill: none; stroke: #444444; stroke-width: 1.5; stroke-linecap: round"/>
   </g>
   <g id="line2d_88">
    <path d="M 833.890909 480.501818 
L 833.890909 446.138182 
" clip-path="url(#p1350113ce9)" style="fill: none; stroke: #444444; stroke-width: 1.5; stroke-linecap: round"/>
   </g>
   <g id="line2d_89">
    <path d="M 806.836364 566.410909 
L 860.945455 566.410909 
" clip-path="url(#p1350113ce9)" style="fill: none; stroke: #444444; stroke-width: 1.5; stroke-linecap: round"/>
   </g>
   <g id="line2d_90">
    <path d="M 806.836364 446.138182 
L 860.945455 446.138182 
" clip-path="url(#p1350113ce9)" style="fill: none; stroke: #444444; stroke-width: 1.5; stroke-linecap: round"/>
   </g>
   <g id="line2d_91"/>
   <g id="line2d_92">
    <path d="M 969.163636 497.683636 
L 969.163636 523.456364 
" clip-path="url(#p1350113ce9)" style="fill: none; stroke: #444444; stroke-width: 1.5; stroke-linecap: round"/>
   </g>
   <g id="line2d_93">
    <path d="M 969.163636 465.467727 
L 969.163636 428.956364 
" clip-path="url(#p1350113ce9)" style="fill: none; stroke: #444444; stroke-width: 1.5; stroke-linecap: round"/>
   </g>
   <g id="line2d_94">
    <path d="M 942.109091 523.456364 
L 996.218182 523.456364 
" clip-path="url(#p1350113ce9)" style="fill: none; stroke: #444444; stroke-width: 1.5; stroke-linecap: round"/>
   </g>
   <g id="line2d_95">
    <path d="M 942.109091 428.956364 
L 996.218182 428.956364 
" clip-path="url(#p1350113ce9)" style="fill: none; stroke: #444444; stroke-width: 1.5; stroke-linecap: round"/>
   </g>
   <g id="line2d_96">
    <g clip-path="url(#p1350113ce9)">
     <use xlink:href="#m1257350798" x="969.163636" y="549.229091" style="fill: #444444; stroke: #444444; stroke-linejoin: miter"/>
     <use xlink:href="#m1257350798" x="969.163636" y="411.774545" style="fill: #444444; stroke: #444444; stroke-linejoin: miter"/>
     <use xlink:href="#m1257350798" x="969.163636" y="411.774545" style="fill: #444444; stroke: #444444; stroke-linejoin: miter"/>
    </g>
   </g>
   <g id="line2d_97">
    <path d="M 644.509091 446.138182 
L 752.727273 446.138182 
" clip-path="url(#p1350113ce9)" style="fill: none; stroke: #444444; stroke-width: 1.5; stroke-linecap: round"/>
   </g>
   <g id="line2d_98">
    <path d="M 779.781818 497.683636 
L 888 497.683636 
" clip-path="url(#p1350113ce9)" style="fill: none; stroke: #444444; stroke-width: 1.5; stroke-linecap: round"/>
   </g>
   <g id="line2d_99">
    <path d="M 915.054545 480.501818 
L 1023.272727 480.501818 
" clip-path="url(#p1350113ce9)" style="fill: none; stroke: #444444; stroke-width: 1.5; stroke-linecap: round"/>
   </g>
   <g id="patch_30">
    <path d="M 630.981818 576.72 
L 630.981818 349.92 
" style="fill: none; stroke: #ffffff; stroke-width: 1.25; stroke-linejoin: miter; stroke-linecap: square"/>
   </g>
   <g id="patch_31">
    <path d="M 1036.8 576.72 
L 1036.8 349.92 
" style="fill: none; stroke: #ffffff; stroke-width: 1.25; stroke-linejoin: miter; stroke-linecap: square"/>
   </g>
   <g id="patch_32">
    <path d="M 630.981818 576.72 
L 1036.8 576.72 
" style="fill: none; stroke: #ffffff; stroke-width: 1.25; stroke-linejoin: miter; stroke-linecap: square"/>
   </g>
   <g id="patch_33">
    <path d="M 630.981818 349.92 
L 1036.8 349.92 
" style="fill: none; stroke: #ffffff; stroke-width: 1.25; stroke-linejoin: miter; stroke-linecap: square"/>
   </g>
  </g>
  <g id="text_48">
   <!-- Box Plots to show the min, max, median and quartiles of each variable -->
   <g style="fill: #262626" transform="translate(308.3975 24.6075)scale(0.16 -0.16)">
    <defs>
     <path id="Arial-BoldMT-42" d="M 469 4581 
L 2300 4581 
Q 2844 4581 3111 4536 
Q 3378 4491 3589 4347 
Q 3800 4203 3940 3964 
Q 4081 3725 4081 3428 
Q 4081 3106 3907 2837 
Q 3734 2569 3438 2434 
Q 3856 2313 4081 2019 
Q 4306 1725 4306 1328 
Q 4306 1016 4161 720 
Q 4016 425 3764 248 
Q 3513 72 3144 31 
Q 2913 6 2028 0 
L 469 0 
L 469 4581 
z
M 1394 3819 
L 1394 2759 
L 2000 2759 
Q 2541 2759 2672 2775 
Q 2909 2803 3045 2939 
Q 3181 3075 3181 3297 
Q 3181 3509 3064 3642 
Q 2947 3775 2716 3803 
Q 2578 3819 1925 3819 
L 1394 3819 
z
M 1394 1997 
L 1394 772 
L 2250 772 
Q 2750 772 2884 800 
Q 3091 838 3220 983 
Q 3350 1128 3350 1372 
Q 3350 1578 3250 1722 
Q 3150 1866 2961 1931 
Q 2772 1997 2141 1997 
L 1394 1997 
z
" transform="scale(0.015625)"/>
     <path id="Arial-BoldMT-6f" d="M 256 1706 
Q 256 2144 472 2553 
Q 688 2963 1083 3178 
Q 1478 3394 1966 3394 
Q 2719 3394 3200 2905 
Q 3681 2416 3681 1669 
Q 3681 916 3195 420 
Q 2709 -75 1972 -75 
Q 1516 -75 1102 131 
Q 688 338 472 736 
Q 256 1134 256 1706 
z
M 1156 1659 
Q 1156 1166 1390 903 
Q 1625 641 1969 641 
Q 2313 641 2545 903 
Q 2778 1166 2778 1666 
Q 2778 2153 2545 2415 
Q 2313 2678 1969 2678 
Q 1625 2678 1390 2415 
Q 1156 2153 1156 1659 
z
" transform="scale(0.015625)"/>
     <path id="Arial-BoldMT-78" d="M 38 0 
L 1234 1709 
L 88 3319 
L 1159 3319 
L 1747 2406 
L 2366 3319 
L 3397 3319 
L 2272 1747 
L 3500 0 
L 2422 0 
L 1747 1028 
L 1066 0 
L 38 0 
z
" transform="scale(0.015625)"/>
     <path id="Arial-BoldMT-20" transform="scale(0.015625)"/>
     <path id="Arial-BoldMT-50" d="M 466 0 
L 466 4581 
L 1950 4581 
Q 2794 4581 3050 4513 
Q 3444 4409 3709 4064 
Q 3975 3719 3975 3172 
Q 3975 2750 3822 2462 
Q 3669 2175 3433 2011 
Q 3197 1847 2953 1794 
Q 2622 1728 1994 1728 
L 1391 1728 
L 1391 0 
L 466 0 
z
M 1391 3806 
L 1391 2506 
L 1897 2506 
Q 2444 2506 2628 2578 
Q 2813 2650 2917 2803 
Q 3022 2956 3022 3159 
Q 3022 3409 2875 3571 
Q 2728 3734 2503 3775 
Q 2338 3806 1838 3806 
L 1391 3806 
z
" transform="scale(0.015625)"/>
     <path id="Arial-BoldMT-6c" d="M 459 0 
L 459 4581 
L 1338 4581 
L 1338 0 
L 459 0 
z
" transform="scale(0.015625)"/>
     <path id="Arial-BoldMT-74" d="M 1981 3319 
L 1981 2619 
L 1381 2619 
L 1381 1281 
Q 1381 875 1398 808 
Q 1416 741 1477 697 
Q 1538 653 1625 653 
Q 1747 653 1978 738 
L 2053 56 
Q 1747 -75 1359 -75 
Q 1122 -75 931 4 
Q 741 84 652 211 
Q 563 338 528 553 
Q 500 706 500 1172 
L 500 2619 
L 97 2619 
L 97 3319 
L 500 3319 
L 500 3978 
L 1381 4491 
L 1381 3319 
L 1981 3319 
z
" transform="scale(0.015625)"/>
     <path id="Arial-BoldMT-73" d="M 150 947 
L 1031 1081 
Q 1088 825 1259 692 
Q 1431 559 1741 559 
Q 2081 559 2253 684 
Q 2369 772 2369 919 
Q 2369 1019 2306 1084 
Q 2241 1147 2013 1200 
Q 950 1434 666 1628 
Q 272 1897 272 2375 
Q 272 2806 612 3100 
Q 953 3394 1669 3394 
Q 2350 3394 2681 3172 
Q 3013 2950 3138 2516 
L 2309 2363 
Q 2256 2556 2107 2659 
Q 1959 2763 1684 2763 
Q 1338 2763 1188 2666 
Q 1088 2597 1088 2488 
Q 1088 2394 1175 2328 
Q 1294 2241 1995 2081 
Q 2697 1922 2975 1691 
Q 3250 1456 3250 1038 
Q 3250 581 2869 253 
Q 2488 -75 1741 -75 
Q 1063 -75 667 200 
Q 272 475 150 947 
z
" transform="scale(0.015625)"/>
     <path id="Arial-BoldMT-68" d="M 1334 4581 
L 1334 2897 
Q 1759 3394 2350 3394 
Q 2653 3394 2897 3281 
Q 3141 3169 3264 2994 
Q 3388 2819 3433 2606 
Q 3478 2394 3478 1947 
L 3478 0 
L 2600 0 
L 2600 1753 
Q 2600 2275 2550 2415 
Q 2500 2556 2373 2639 
Q 2247 2722 2056 2722 
Q 1838 2722 1666 2615 
Q 1494 2509 1414 2295 
Q 1334 2081 1334 1663 
L 1334 0 
L 456 0 
L 456 4581 
L 1334 4581 
z
" transform="scale(0.015625)"/>
     <path id="Arial-BoldMT-77" d="M 1078 0 
L 28 3319 
L 881 3319 
L 1503 1144 
L 2075 3319 
L 2922 3319 
L 3475 1144 
L 4109 3319 
L 4975 3319 
L 3909 0 
L 3066 0 
L 2494 2134 
L 1931 0 
L 1078 0 
z
" transform="scale(0.015625)"/>
     <path id="Arial-BoldMT-65" d="M 2381 1056 
L 3256 909 
Q 3088 428 2723 176 
Q 2359 -75 1813 -75 
Q 947 -75 531 491 
Q 203 944 203 1634 
Q 203 2459 634 2926 
Q 1066 3394 1725 3394 
Q 2466 3394 2894 2905 
Q 3322 2416 3303 1406 
L 1103 1406 
Q 1113 1016 1316 798 
Q 1519 581 1822 581 
Q 2028 581 2168 693 
Q 2309 806 2381 1056 
z
M 2431 1944 
Q 2422 2325 2234 2523 
Q 2047 2722 1778 2722 
Q 1491 2722 1303 2513 
Q 1116 2303 1119 1944 
L 2431 1944 
z
" transform="scale(0.015625)"/>
     <path id="Arial-BoldMT-6d" d="M 394 3319 
L 1203 3319 
L 1203 2866 
Q 1638 3394 2238 3394 
Q 2556 3394 2790 3262 
Q 3025 3131 3175 2866 
Q 3394 3131 3647 3262 
Q 3900 3394 4188 3394 
Q 4553 3394 4806 3245 
Q 5059 3097 5184 2809 
Q 5275 2597 5275 2122 
L 5275 0 
L 4397 0 
L 4397 1897 
Q 4397 2391 4306 2534 
Q 4184 2722 3931 2722 
Q 3747 2722 3584 2609 
Q 3422 2497 3350 2280 
Q 3278 2063 3278 1594 
L 3278 0 
L 2400 0 
L 2400 1819 
Q 2400 2303 2353 2443 
Q 2306 2584 2207 2653 
Q 2109 2722 1941 2722 
Q 1738 2722 1575 2612 
Q 1413 2503 1342 2297 
Q 1272 2091 1272 1613 
L 1272 0 
L 394 0 
L 394 3319 
z
" transform="scale(0.015625)"/>
     <path id="Arial-BoldMT-69" d="M 459 3769 
L 459 4581 
L 1338 4581 
L 1338 3769 
L 459 3769 
z
M 459 0 
L 459 3319 
L 1338 3319 
L 1338 0 
L 459 0 
z
" transform="scale(0.015625)"/>
     <path id="Arial-BoldMT-6e" d="M 3478 0 
L 2600 0 
L 2600 1694 
Q 2600 2231 2544 2389 
Q 2488 2547 2361 2634 
Q 2234 2722 2056 2722 
Q 1828 2722 1647 2597 
Q 1466 2472 1398 2265 
Q 1331 2059 1331 1503 
L 1331 0 
L 453 0 
L 453 3319 
L 1269 3319 
L 1269 2831 
Q 1703 3394 2363 3394 
Q 2653 3394 2893 3289 
Q 3134 3184 3257 3021 
Q 3381 2859 3429 2653 
Q 3478 2447 3478 2063 
L 3478 0 
z
" transform="scale(0.015625)"/>
     <path id="Arial-BoldMT-2c" d="M 438 878 
L 1316 878 
L 1316 250 
Q 1316 -131 1250 -351 
Q 1184 -572 1001 -747 
Q 819 -922 538 -1022 
L 366 -659 
Q 631 -572 743 -419 
Q 856 -266 863 0 
L 438 0 
L 438 878 
z
" transform="scale(0.015625)"/>
     <path id="Arial-BoldMT-61" d="M 1116 2306 
L 319 2450 
Q 453 2931 781 3162 
Q 1109 3394 1756 3394 
Q 2344 3394 2631 3255 
Q 2919 3116 3036 2902 
Q 3153 2688 3153 2116 
L 3144 1091 
Q 3144 653 3186 445 
Q 3228 238 3344 0 
L 2475 0 
Q 2441 88 2391 259 
Q 2369 338 2359 363 
Q 2134 144 1878 34 
Q 1622 -75 1331 -75 
Q 819 -75 523 203 
Q 228 481 228 906 
Q 228 1188 362 1408 
Q 497 1628 739 1745 
Q 981 1863 1438 1950 
Q 2053 2066 2291 2166 
L 2291 2253 
Q 2291 2506 2166 2614 
Q 2041 2722 1694 2722 
Q 1459 2722 1328 2630 
Q 1197 2538 1116 2306 
z
M 2291 1594 
Q 2122 1538 1756 1459 
Q 1391 1381 1278 1306 
Q 1106 1184 1106 997 
Q 1106 813 1243 678 
Q 1381 544 1594 544 
Q 1831 544 2047 700 
Q 2206 819 2256 991 
Q 2291 1103 2291 1419 
L 2291 1594 
z
" transform="scale(0.015625)"/>
     <path id="Arial-BoldMT-64" d="M 3503 0 
L 2688 0 
L 2688 488 
Q 2484 203 2207 64 
Q 1931 -75 1650 -75 
Q 1078 -75 670 386 
Q 263 847 263 1672 
Q 263 2516 659 2955 
Q 1056 3394 1663 3394 
Q 2219 3394 2625 2931 
L 2625 4581 
L 3503 4581 
L 3503 0 
z
M 1159 1731 
Q 1159 1200 1306 963 
Q 1519 619 1900 619 
Q 2203 619 2415 876 
Q 2628 1134 2628 1647 
Q 2628 2219 2422 2470 
Q 2216 2722 1894 2722 
Q 1581 2722 1370 2473 
Q 1159 2225 1159 1731 
z
" transform="scale(0.015625)"/>
     <path id="Arial-BoldMT-71" d="M 2628 -1263 
L 2628 406 
Q 2456 184 2200 54 
Q 1944 -75 1647 -75 
Q 1081 -75 716 350 
Q 284 847 284 1697 
Q 284 2497 689 2945 
Q 1094 3394 1694 3394 
Q 2025 3394 2267 3253 
Q 2509 3113 2697 2828 
L 2697 3319 
L 3506 3319 
L 3506 -1263 
L 2628 -1263 
z
M 2656 1700 
Q 2656 2209 2448 2457 
Q 2241 2706 1928 2706 
Q 1609 2706 1395 2453 
Q 1181 2200 1181 1650 
Q 1181 1103 1387 861 
Q 1594 619 1897 619 
Q 2200 619 2428 891 
Q 2656 1163 2656 1700 
z
" transform="scale(0.015625)"/>
     <path id="Arial-BoldMT-75" d="M 2644 0 
L 2644 497 
Q 2463 231 2167 78 
Q 1872 -75 1544 -75 
Q 1209 -75 943 72 
Q 678 219 559 484 
Q 441 750 441 1219 
L 441 3319 
L 1319 3319 
L 1319 1794 
Q 1319 1094 1367 936 
Q 1416 778 1544 686 
Q 1672 594 1869 594 
Q 2094 594 2272 717 
Q 2450 841 2515 1023 
Q 2581 1206 2581 1919 
L 2581 3319 
L 3459 3319 
L 3459 0 
L 2644 0 
z
" transform="scale(0.015625)"/>
     <path id="Arial-BoldMT-72" d="M 1300 0 
L 422 0 
L 422 3319 
L 1238 3319 
L 1238 2847 
Q 1447 3181 1614 3287 
Q 1781 3394 1994 3394 
Q 2294 3394 2572 3228 
L 2300 2463 
Q 2078 2606 1888 2606 
Q 1703 2606 1575 2504 
Q 1447 2403 1373 2137 
Q 1300 1872 1300 1025 
L 1300 0 
z
" transform="scale(0.015625)"/>
     <path id="Arial-BoldMT-66" d="M 75 3319 
L 563 3319 
L 563 3569 
Q 563 3988 652 4194 
Q 741 4400 980 4529 
Q 1219 4659 1584 4659 
Q 1959 4659 2319 4547 
L 2200 3934 
Q 1991 3984 1797 3984 
Q 1606 3984 1523 3895 
Q 1441 3806 1441 3553 
L 1441 3319 
L 2097 3319 
L 2097 2628 
L 1441 2628 
L 1441 0 
L 563 0 
L 563 2628 
L 75 2628 
L 75 3319 
z
" transform="scale(0.015625)"/>
     <path id="Arial-BoldMT-63" d="M 3353 2338 
L 2488 2181 
Q 2444 2441 2289 2572 
Q 2134 2703 1888 2703 
Q 1559 2703 1364 2476 
Q 1169 2250 1169 1719 
Q 1169 1128 1367 884 
Q 1566 641 1900 641 
Q 2150 641 2309 783 
Q 2469 925 2534 1272 
L 3397 1125 
Q 3263 531 2881 228 
Q 2500 -75 1859 -75 
Q 1131 -75 698 384 
Q 266 844 266 1656 
Q 266 2478 700 2936 
Q 1134 3394 1875 3394 
Q 2481 3394 2839 3133 
Q 3197 2872 3353 2338 
z
" transform="scale(0.015625)"/>
     <path id="Arial-BoldMT-76" d="M 1372 0 
L 34 3319 
L 956 3319 
L 1581 1625 
L 1763 1059 
Q 1834 1275 1853 1344 
Q 1897 1484 1947 1625 
L 2578 3319 
L 3481 3319 
L 2163 0 
L 1372 0 
z
" transform="scale(0.015625)"/>
     <path id="Arial-BoldMT-62" d="M 422 0 
L 422 4581 
L 1300 4581 
L 1300 2931 
Q 1706 3394 2263 3394 
Q 2869 3394 3266 2955 
Q 3663 2516 3663 1694 
Q 3663 844 3258 384 
Q 2853 -75 2275 -75 
Q 1991 -75 1714 67 
Q 1438 209 1238 488 
L 1238 0 
L 422 0 
z
M 1294 1731 
Q 1294 1216 1456 969 
Q 1684 619 2063 619 
Q 2353 619 2558 867 
Q 2763 1116 2763 1650 
Q 2763 2219 2556 2470 
Q 2350 2722 2028 2722 
Q 1713 2722 1503 2476 
Q 1294 2231 1294 1731 
z
" transform="scale(0.015625)"/>
    </defs>
    <use xlink:href="#Arial-BoldMT-42"/>
    <use xlink:href="#Arial-BoldMT-6f" x="72.216797"/>
    <use xlink:href="#Arial-BoldMT-78" x="133.300781"/>
    <use xlink:href="#Arial-BoldMT-20" x="188.916016"/>
    <use xlink:href="#Arial-BoldMT-50" x="216.699219"/>
    <use xlink:href="#Arial-BoldMT-6c" x="283.398438"/>
    <use xlink:href="#Arial-BoldMT-6f" x="311.181641"/>
    <use xlink:href="#Arial-BoldMT-74" x="372.265625"/>
    <use xlink:href="#Arial-BoldMT-73" x="405.566406"/>
    <use xlink:href="#Arial-BoldMT-20" x="461.181641"/>
    <use xlink:href="#Arial-BoldMT-74" x="488.964844"/>
    <use xlink:href="#Arial-BoldMT-6f" x="522.265625"/>
    <use xlink:href="#Arial-BoldMT-20" x="583.349609"/>
    <use xlink:href="#Arial-BoldMT-73" x="611.132812"/>
    <use xlink:href="#Arial-BoldMT-68" x="666.748047"/>
    <use xlink:href="#Arial-BoldMT-6f" x="727.832031"/>
    <use xlink:href="#Arial-BoldMT-77" x="788.916016"/>
    <use xlink:href="#Arial-BoldMT-20" x="866.699219"/>
    <use xlink:href="#Arial-BoldMT-74" x="894.482422"/>
    <use xlink:href="#Arial-BoldMT-68" x="927.783203"/>
    <use xlink:href="#Arial-BoldMT-65" x="988.867188"/>
    <use xlink:href="#Arial-BoldMT-20" x="1044.482422"/>
    <use xlink:href="#Arial-BoldMT-6d" x="1072.265625"/>
    <use xlink:href="#Arial-BoldMT-69" x="1161.181641"/>
    <use xlink:href="#Arial-BoldMT-6e" x="1188.964844"/>
    <use xlink:href="#Arial-BoldMT-2c" x="1250.048828"/>
    <use xlink:href="#Arial-BoldMT-20" x="1277.832031"/>
    <use xlink:href="#Arial-BoldMT-6d" x="1305.615234"/>
    <use xlink:href="#Arial-BoldMT-61" x="1394.53125"/>
    <use xlink:href="#Arial-BoldMT-78" x="1450.146484"/>
    <use xlink:href="#Arial-BoldMT-2c" x="1505.761719"/>
    <use xlink:href="#Arial-BoldMT-20" x="1533.544922"/>
    <use xlink:href="#Arial-BoldMT-6d" x="1561.328125"/>
    <use xlink:href="#Arial-BoldMT-65" x="1650.244141"/>
    <use xlink:href="#Arial-BoldMT-64" x="1705.859375"/>
    <use xlink:href="#Arial-BoldMT-69" x="1766.943359"/>
    <use xlink:href="#Arial-BoldMT-61" x="1794.726562"/>
    <use xlink:href="#Arial-BoldMT-6e" x="1850.341797"/>
    <use xlink:href="#Arial-BoldMT-20" x="1911.425781"/>
    <use xlink:href="#Arial-BoldMT-61" x="1939.208984"/>
    <use xlink:href="#Arial-BoldMT-6e" x="1994.824219"/>
    <use xlink:href="#Arial-BoldMT-64" x="2055.908203"/>
    <use xlink:href="#Arial-BoldMT-20" x="2116.992188"/>
    <use xlink:href="#Arial-BoldMT-71" x="2144.775391"/>
    <use xlink:href="#Arial-BoldMT-75" x="2205.859375"/>
    <use xlink:href="#Arial-BoldMT-61" x="2266.943359"/>
    <use xlink:href="#Arial-BoldMT-72" x="2322.558594"/>
    <use xlink:href="#Arial-BoldMT-74" x="2361.474609"/>
    <use xlink:href="#Arial-BoldMT-69" x="2394.775391"/>
    <use xlink:href="#Arial-BoldMT-6c" x="2422.558594"/>
    <use xlink:href="#Arial-BoldMT-65" x="2450.341797"/>
    <use xlink:href="#Arial-BoldMT-73" x="2505.957031"/>
    <use xlink:href="#Arial-BoldMT-20" x="2561.572266"/>
    <use xlink:href="#Arial-BoldMT-6f" x="2589.355469"/>
    <use xlink:href="#Arial-BoldMT-66" x="2650.439453"/>
    <use xlink:href="#Arial-BoldMT-20" x="2683.740234"/>
    <use xlink:href="#Arial-BoldMT-65" x="2711.523438"/>
    <use xlink:href="#Arial-BoldMT-61" x="2767.138672"/>
    <use xlink:href="#Arial-BoldMT-63" x="2822.753906"/>
    <use xlink:href="#Arial-BoldMT-68" x="2878.369141"/>
    <use xlink:href="#Arial-BoldMT-20" x="2939.453125"/>
    <use xlink:href="#Arial-BoldMT-76" x="2967.236328"/>
    <use xlink:href="#Arial-BoldMT-61" x="3022.851562"/>
    <use xlink:href="#Arial-BoldMT-72" x="3078.466797"/>
    <use xlink:href="#Arial-BoldMT-69" x="3117.382812"/>
    <use xlink:href="#Arial-BoldMT-61" x="3145.166016"/>
    <use xlink:href="#Arial-BoldMT-62" x="3200.78125"/>
    <use xlink:href="#Arial-BoldMT-6c" x="3261.865234"/>
    <use xlink:href="#Arial-BoldMT-65" x="3289.648438"/>
   </g>
  </g>
 </g>
 <defs>
  <clipPath id="p3c4a35440b">
   <rect x="144" y="77.76" width="405.818182" height="226.8"/>
  </clipPath>
  <clipPath id="p80e2743703">
   <rect x="630.981818" y="77.76" width="405.818182" height="226.8"/>
  </clipPath>
  <clipPath id="pfe4b534070">
   <rect x="144" y="349.92" width="405.818182" height="226.8"/>
  </clipPath>
  <clipPath id="p1350113ce9">
   <rect x="630.981818" y="349.92" width="405.818182" height="226.8"/>
  </clipPath>
 </defs>
</svg>
