<?xml version="1.0" encoding="utf-8" standalone="no"?>
<!DOCTYPE svg PUBLIC "-//W3C//DTD SVG 1.1//EN"
  "http://www.w3.org/Graphics/SVG/1.1/DTD/svg11.dtd">
<svg xmlns:xlink="http://www.w3.org/1999/xlink" width="458.342812pt" height="363.307969pt" viewBox="0 0 458.342812 363.307969" xmlns="http://www.w3.org/2000/svg" version="1.1">
 <metadata>
  <rdf:RDF xmlns:dc="http://purl.org/dc/elements/1.1/" xmlns:cc="http://creativecommons.org/ns#" xmlns:rdf="http://www.w3.org/1999/02/22-rdf-syntax-ns#">
   <cc:Work>
    <dc:type rdf:resource="http://purl.org/dc/dcmitype/StillImage"/>
    <dc:date>2022-04-29T20:18:58.418352</dc:date>
    <dc:format>image/svg+xml</dc:format>
    <dc:creator>
     <cc:Agent>
      <dc:title>Matplotlib v3.5.1, https://matplotlib.org/</dc:title>
     </cc:Agent>
    </dc:creator>
   </cc:Work>
  </rdf:RDF>
 </metadata>
 <defs>
  <style type="text/css">*{stroke-linejoin: round; stroke-linecap: butt}</style>
 </defs>
 <g id="figure_1">
  <g id="patch_1">
   <path d="M 0 363.307969 
L 458.342813 363.307969 
L 458.342813 0 
L 0 0 
z
" style="fill: #ffffff"/>
  </g>
  <g id="axes_1">
   <g id="patch_2">
    <path d="M 44.049063 321.433125 
L 330.838009 321.433125 
L 330.838009 21.935625 
L 44.049063 21.935625 
z
" style="fill: #eaeaf2"/>
   </g>
   <g id="matplotlib.axis_1">
    <g id="xtick_1">
     <g id="line2d_1">
      <path d="M 66.085655 321.433125 
L 66.085655 21.935625 
" clip-path="url(#pb0a80c69c5)" style="fill: none; stroke: #ffffff; stroke-linecap: round"/>
     </g>
     <g id="text_1">
      <!-- 1 -->
      <g style="fill: #262626" transform="translate(63.02714 338.806719)scale(0.11 -0.11)">
       <defs>
        <path id="ArialMT-31" d="M 2384 0 
L 1822 0 
L 1822 3584 
Q 1619 3391 1289 3197 
Q 959 3003 697 2906 
L 697 3450 
Q 1169 3672 1522 3987 
Q 1875 4303 2022 4600 
L 2384 4600 
L 2384 0 
z
" transform="scale(0.015625)"/>
       </defs>
       <use xlink:href="#ArialMT-31"/>
      </g>
     </g>
    </g>
    <g id="xtick_2">
     <g id="line2d_2">
      <path d="M 103.89709 321.433125 
L 103.89709 21.935625 
" clip-path="url(#pb0a80c69c5)" style="fill: none; stroke: #ffffff; stroke-linecap: round"/>
     </g>
     <g id="text_2">
      <!-- 2 -->
      <g style="fill: #262626" transform="translate(100.838574 338.806719)scale(0.11 -0.11)">
       <defs>
        <path id="ArialMT-32" d="M 3222 541 
L 3222 0 
L 194 0 
Q 188 203 259 391 
Q 375 700 629 1000 
Q 884 1300 1366 1694 
Q 2113 2306 2375 2664 
Q 2638 3022 2638 3341 
Q 2638 3675 2398 3904 
Q 2159 4134 1775 4134 
Q 1369 4134 1125 3890 
Q 881 3647 878 3216 
L 300 3275 
Q 359 3922 746 4261 
Q 1134 4600 1788 4600 
Q 2447 4600 2831 4234 
Q 3216 3869 3216 3328 
Q 3216 3053 3103 2787 
Q 2991 2522 2730 2228 
Q 2469 1934 1863 1422 
Q 1356 997 1212 845 
Q 1069 694 975 541 
L 3222 541 
z
" transform="scale(0.015625)"/>
       </defs>
       <use xlink:href="#ArialMT-32"/>
      </g>
     </g>
    </g>
    <g id="xtick_3">
     <g id="line2d_3">
      <path d="M 141.708524 321.433125 
L 141.708524 21.935625 
" clip-path="url(#pb0a80c69c5)" style="fill: none; stroke: #ffffff; stroke-linecap: round"/>
     </g>
     <g id="text_3">
      <!-- 3 -->
      <g style="fill: #262626" transform="translate(138.650008 338.806719)scale(0.11 -0.11)">
       <defs>
        <path id="ArialMT-33" d="M 269 1209 
L 831 1284 
Q 928 806 1161 595 
Q 1394 384 1728 384 
Q 2125 384 2398 659 
Q 2672 934 2672 1341 
Q 2672 1728 2419 1979 
Q 2166 2231 1775 2231 
Q 1616 2231 1378 2169 
L 1441 2663 
Q 1497 2656 1531 2656 
Q 1891 2656 2178 2843 
Q 2466 3031 2466 3422 
Q 2466 3731 2256 3934 
Q 2047 4138 1716 4138 
Q 1388 4138 1169 3931 
Q 950 3725 888 3313 
L 325 3413 
Q 428 3978 793 4289 
Q 1159 4600 1703 4600 
Q 2078 4600 2393 4439 
Q 2709 4278 2876 4000 
Q 3044 3722 3044 3409 
Q 3044 3113 2884 2869 
Q 2725 2625 2413 2481 
Q 2819 2388 3044 2092 
Q 3269 1797 3269 1353 
Q 3269 753 2831 336 
Q 2394 -81 1725 -81 
Q 1122 -81 723 278 
Q 325 638 269 1209 
z
" transform="scale(0.015625)"/>
       </defs>
       <use xlink:href="#ArialMT-33"/>
      </g>
     </g>
    </g>
    <g id="xtick_4">
     <g id="line2d_4">
      <path d="M 179.519958 321.433125 
L 179.519958 21.935625 
" clip-path="url(#pb0a80c69c5)" style="fill: none; stroke: #ffffff; stroke-linecap: round"/>
     </g>
     <g id="text_4">
      <!-- 4 -->
      <g style="fill: #262626" transform="translate(176.461443 338.806719)scale(0.11 -0.11)">
       <defs>
        <path id="ArialMT-34" d="M 2069 0 
L 2069 1097 
L 81 1097 
L 81 1613 
L 2172 4581 
L 2631 4581 
L 2631 1613 
L 3250 1613 
L 3250 1097 
L 2631 1097 
L 2631 0 
L 2069 0 
z
M 2069 1613 
L 2069 3678 
L 634 1613 
L 2069 1613 
z
" transform="scale(0.015625)"/>
       </defs>
       <use xlink:href="#ArialMT-34"/>
      </g>
     </g>
    </g>
    <g id="xtick_5">
     <g id="line2d_5">
      <path d="M 217.331393 321.433125 
L 217.331393 21.935625 
" clip-path="url(#pb0a80c69c5)" style="fill: none; stroke: #ffffff; stroke-linecap: round"/>
     </g>
     <g id="text_5">
      <!-- 5 -->
      <g style="fill: #262626" transform="translate(214.272877 338.806719)scale(0.11 -0.11)">
       <defs>
        <path id="ArialMT-35" d="M 266 1200 
L 856 1250 
Q 922 819 1161 601 
Q 1400 384 1738 384 
Q 2144 384 2425 690 
Q 2706 997 2706 1503 
Q 2706 1984 2436 2262 
Q 2166 2541 1728 2541 
Q 1456 2541 1237 2417 
Q 1019 2294 894 2097 
L 366 2166 
L 809 4519 
L 3088 4519 
L 3088 3981 
L 1259 3981 
L 1013 2750 
Q 1425 3038 1878 3038 
Q 2478 3038 2890 2622 
Q 3303 2206 3303 1553 
Q 3303 931 2941 478 
Q 2500 -78 1738 -78 
Q 1113 -78 717 272 
Q 322 622 266 1200 
z
" transform="scale(0.015625)"/>
       </defs>
       <use xlink:href="#ArialMT-35"/>
      </g>
     </g>
    </g>
    <g id="xtick_6">
     <g id="line2d_6">
      <path d="M 255.142827 321.433125 
L 255.142827 21.935625 
" clip-path="url(#pb0a80c69c5)" style="fill: none; stroke: #ffffff; stroke-linecap: round"/>
     </g>
     <g id="text_6">
      <!-- 6 -->
      <g style="fill: #262626" transform="translate(252.084312 338.806719)scale(0.11 -0.11)">
       <defs>
        <path id="ArialMT-36" d="M 3184 3459 
L 2625 3416 
Q 2550 3747 2413 3897 
Q 2184 4138 1850 4138 
Q 1581 4138 1378 3988 
Q 1113 3794 959 3422 
Q 806 3050 800 2363 
Q 1003 2672 1297 2822 
Q 1591 2972 1913 2972 
Q 2475 2972 2870 2558 
Q 3266 2144 3266 1488 
Q 3266 1056 3080 686 
Q 2894 316 2569 119 
Q 2244 -78 1831 -78 
Q 1128 -78 684 439 
Q 241 956 241 2144 
Q 241 3472 731 4075 
Q 1159 4600 1884 4600 
Q 2425 4600 2770 4297 
Q 3116 3994 3184 3459 
z
M 888 1484 
Q 888 1194 1011 928 
Q 1134 663 1356 523 
Q 1578 384 1822 384 
Q 2178 384 2434 671 
Q 2691 959 2691 1453 
Q 2691 1928 2437 2201 
Q 2184 2475 1800 2475 
Q 1419 2475 1153 2201 
Q 888 1928 888 1484 
z
" transform="scale(0.015625)"/>
       </defs>
       <use xlink:href="#ArialMT-36"/>
      </g>
     </g>
    </g>
    <g id="xtick_7">
     <g id="line2d_7">
      <path d="M 292.954261 321.433125 
L 292.954261 21.935625 
" clip-path="url(#pb0a80c69c5)" style="fill: none; stroke: #ffffff; stroke-linecap: round"/>
     </g>
     <g id="text_7">
      <!-- 7 -->
      <g style="fill: #262626" transform="translate(289.895746 338.806719)scale(0.11 -0.11)">
       <defs>
        <path id="ArialMT-37" d="M 303 3981 
L 303 4522 
L 3269 4522 
L 3269 4084 
Q 2831 3619 2401 2847 
Q 1972 2075 1738 1259 
Q 1569 684 1522 0 
L 944 0 
Q 953 541 1156 1306 
Q 1359 2072 1739 2783 
Q 2119 3494 2547 3981 
L 303 3981 
z
" transform="scale(0.015625)"/>
       </defs>
       <use xlink:href="#ArialMT-37"/>
      </g>
     </g>
    </g>
    <g id="xtick_8">
     <g id="line2d_8">
      <path d="M 330.765696 321.433125 
L 330.765696 21.935625 
" clip-path="url(#pb0a80c69c5)" style="fill: none; stroke: #ffffff; stroke-linecap: round"/>
     </g>
     <g id="text_8">
      <!-- 8 -->
      <g style="fill: #262626" transform="translate(327.70718 338.806719)scale(0.11 -0.11)">
       <defs>
        <path id="ArialMT-38" d="M 1131 2484 
Q 781 2613 612 2850 
Q 444 3088 444 3419 
Q 444 3919 803 4259 
Q 1163 4600 1759 4600 
Q 2359 4600 2725 4251 
Q 3091 3903 3091 3403 
Q 3091 3084 2923 2848 
Q 2756 2613 2416 2484 
Q 2838 2347 3058 2040 
Q 3278 1734 3278 1309 
Q 3278 722 2862 322 
Q 2447 -78 1769 -78 
Q 1091 -78 675 323 
Q 259 725 259 1325 
Q 259 1772 486 2073 
Q 713 2375 1131 2484 
z
M 1019 3438 
Q 1019 3113 1228 2906 
Q 1438 2700 1772 2700 
Q 2097 2700 2305 2904 
Q 2513 3109 2513 3406 
Q 2513 3716 2298 3927 
Q 2084 4138 1766 4138 
Q 1444 4138 1231 3931 
Q 1019 3725 1019 3438 
z
M 838 1322 
Q 838 1081 952 856 
Q 1066 631 1291 507 
Q 1516 384 1775 384 
Q 2178 384 2440 643 
Q 2703 903 2703 1303 
Q 2703 1709 2433 1975 
Q 2163 2241 1756 2241 
Q 1359 2241 1098 1978 
Q 838 1716 838 1322 
z
" transform="scale(0.015625)"/>
       </defs>
       <use xlink:href="#ArialMT-38"/>
      </g>
     </g>
    </g>
    <g id="text_9">
     <!-- Petal Length cm -->
     <g style="fill: #262626" transform="translate(144.086973 353.582344)scale(0.12 -0.12)">
      <defs>
       <path id="ArialMT-50" d="M 494 0 
L 494 4581 
L 2222 4581 
Q 2678 4581 2919 4538 
Q 3256 4481 3484 4323 
Q 3713 4166 3852 3881 
Q 3991 3597 3991 3256 
Q 3991 2672 3619 2267 
Q 3247 1863 2275 1863 
L 1100 1863 
L 1100 0 
L 494 0 
z
M 1100 2403 
L 2284 2403 
Q 2872 2403 3119 2622 
Q 3366 2841 3366 3238 
Q 3366 3525 3220 3729 
Q 3075 3934 2838 4000 
Q 2684 4041 2272 4041 
L 1100 4041 
L 1100 2403 
z
" transform="scale(0.015625)"/>
       <path id="ArialMT-65" d="M 2694 1069 
L 3275 997 
Q 3138 488 2766 206 
Q 2394 -75 1816 -75 
Q 1088 -75 661 373 
Q 234 822 234 1631 
Q 234 2469 665 2931 
Q 1097 3394 1784 3394 
Q 2450 3394 2872 2941 
Q 3294 2488 3294 1666 
Q 3294 1616 3291 1516 
L 816 1516 
Q 847 969 1125 678 
Q 1403 388 1819 388 
Q 2128 388 2347 550 
Q 2566 713 2694 1069 
z
M 847 1978 
L 2700 1978 
Q 2663 2397 2488 2606 
Q 2219 2931 1791 2931 
Q 1403 2931 1139 2672 
Q 875 2413 847 1978 
z
" transform="scale(0.015625)"/>
       <path id="ArialMT-74" d="M 1650 503 
L 1731 6 
Q 1494 -44 1306 -44 
Q 1000 -44 831 53 
Q 663 150 594 308 
Q 525 466 525 972 
L 525 2881 
L 113 2881 
L 113 3319 
L 525 3319 
L 525 4141 
L 1084 4478 
L 1084 3319 
L 1650 3319 
L 1650 2881 
L 1084 2881 
L 1084 941 
Q 1084 700 1114 631 
Q 1144 563 1211 522 
Q 1278 481 1403 481 
Q 1497 481 1650 503 
z
" transform="scale(0.015625)"/>
       <path id="ArialMT-61" d="M 2588 409 
Q 2275 144 1986 34 
Q 1697 -75 1366 -75 
Q 819 -75 525 192 
Q 231 459 231 875 
Q 231 1119 342 1320 
Q 453 1522 633 1644 
Q 813 1766 1038 1828 
Q 1203 1872 1538 1913 
Q 2219 1994 2541 2106 
Q 2544 2222 2544 2253 
Q 2544 2597 2384 2738 
Q 2169 2928 1744 2928 
Q 1347 2928 1158 2789 
Q 969 2650 878 2297 
L 328 2372 
Q 403 2725 575 2942 
Q 747 3159 1072 3276 
Q 1397 3394 1825 3394 
Q 2250 3394 2515 3294 
Q 2781 3194 2906 3042 
Q 3031 2891 3081 2659 
Q 3109 2516 3109 2141 
L 3109 1391 
Q 3109 606 3145 398 
Q 3181 191 3288 0 
L 2700 0 
Q 2613 175 2588 409 
z
M 2541 1666 
Q 2234 1541 1622 1453 
Q 1275 1403 1131 1340 
Q 988 1278 909 1158 
Q 831 1038 831 891 
Q 831 666 1001 516 
Q 1172 366 1500 366 
Q 1825 366 2078 508 
Q 2331 650 2450 897 
Q 2541 1088 2541 1459 
L 2541 1666 
z
" transform="scale(0.015625)"/>
       <path id="ArialMT-6c" d="M 409 0 
L 409 4581 
L 972 4581 
L 972 0 
L 409 0 
z
" transform="scale(0.015625)"/>
       <path id="ArialMT-20" transform="scale(0.015625)"/>
       <path id="ArialMT-4c" d="M 469 0 
L 469 4581 
L 1075 4581 
L 1075 541 
L 3331 541 
L 3331 0 
L 469 0 
z
" transform="scale(0.015625)"/>
       <path id="ArialMT-6e" d="M 422 0 
L 422 3319 
L 928 3319 
L 928 2847 
Q 1294 3394 1984 3394 
Q 2284 3394 2536 3286 
Q 2788 3178 2913 3003 
Q 3038 2828 3088 2588 
Q 3119 2431 3119 2041 
L 3119 0 
L 2556 0 
L 2556 2019 
Q 2556 2363 2490 2533 
Q 2425 2703 2258 2804 
Q 2091 2906 1866 2906 
Q 1506 2906 1245 2678 
Q 984 2450 984 1813 
L 984 0 
L 422 0 
z
" transform="scale(0.015625)"/>
       <path id="ArialMT-67" d="M 319 -275 
L 866 -356 
Q 900 -609 1056 -725 
Q 1266 -881 1628 -881 
Q 2019 -881 2231 -725 
Q 2444 -569 2519 -288 
Q 2563 -116 2559 434 
Q 2191 0 1641 0 
Q 956 0 581 494 
Q 206 988 206 1678 
Q 206 2153 378 2554 
Q 550 2956 876 3175 
Q 1203 3394 1644 3394 
Q 2231 3394 2613 2919 
L 2613 3319 
L 3131 3319 
L 3131 450 
Q 3131 -325 2973 -648 
Q 2816 -972 2473 -1159 
Q 2131 -1347 1631 -1347 
Q 1038 -1347 672 -1080 
Q 306 -813 319 -275 
z
M 784 1719 
Q 784 1066 1043 766 
Q 1303 466 1694 466 
Q 2081 466 2343 764 
Q 2606 1063 2606 1700 
Q 2606 2309 2336 2618 
Q 2066 2928 1684 2928 
Q 1309 2928 1046 2623 
Q 784 2319 784 1719 
z
" transform="scale(0.015625)"/>
       <path id="ArialMT-68" d="M 422 0 
L 422 4581 
L 984 4581 
L 984 2938 
Q 1378 3394 1978 3394 
Q 2347 3394 2619 3248 
Q 2891 3103 3008 2847 
Q 3125 2591 3125 2103 
L 3125 0 
L 2563 0 
L 2563 2103 
Q 2563 2525 2380 2717 
Q 2197 2909 1863 2909 
Q 1613 2909 1392 2779 
Q 1172 2650 1078 2428 
Q 984 2206 984 1816 
L 984 0 
L 422 0 
z
" transform="scale(0.015625)"/>
       <path id="ArialMT-63" d="M 2588 1216 
L 3141 1144 
Q 3050 572 2676 248 
Q 2303 -75 1759 -75 
Q 1078 -75 664 370 
Q 250 816 250 1647 
Q 250 2184 428 2587 
Q 606 2991 970 3192 
Q 1334 3394 1763 3394 
Q 2303 3394 2647 3120 
Q 2991 2847 3088 2344 
L 2541 2259 
Q 2463 2594 2264 2762 
Q 2066 2931 1784 2931 
Q 1359 2931 1093 2626 
Q 828 2322 828 1663 
Q 828 994 1084 691 
Q 1341 388 1753 388 
Q 2084 388 2306 591 
Q 2528 794 2588 1216 
z
" transform="scale(0.015625)"/>
       <path id="ArialMT-6d" d="M 422 0 
L 422 3319 
L 925 3319 
L 925 2853 
Q 1081 3097 1340 3245 
Q 1600 3394 1931 3394 
Q 2300 3394 2536 3241 
Q 2772 3088 2869 2813 
Q 3263 3394 3894 3394 
Q 4388 3394 4653 3120 
Q 4919 2847 4919 2278 
L 4919 0 
L 4359 0 
L 4359 2091 
Q 4359 2428 4304 2576 
Q 4250 2725 4106 2815 
Q 3963 2906 3769 2906 
Q 3419 2906 3187 2673 
Q 2956 2441 2956 1928 
L 2956 0 
L 2394 0 
L 2394 2156 
Q 2394 2531 2256 2718 
Q 2119 2906 1806 2906 
Q 1569 2906 1367 2781 
Q 1166 2656 1075 2415 
Q 984 2175 984 1722 
L 984 0 
L 422 0 
z
" transform="scale(0.015625)"/>
      </defs>
      <use xlink:href="#ArialMT-50"/>
      <use xlink:href="#ArialMT-65" x="66.699219"/>
      <use xlink:href="#ArialMT-74" x="122.314453"/>
      <use xlink:href="#ArialMT-61" x="150.097656"/>
      <use xlink:href="#ArialMT-6c" x="205.712891"/>
      <use xlink:href="#ArialMT-20" x="227.929688"/>
      <use xlink:href="#ArialMT-4c" x="255.712891"/>
      <use xlink:href="#ArialMT-65" x="311.328125"/>
      <use xlink:href="#ArialMT-6e" x="366.943359"/>
      <use xlink:href="#ArialMT-67" x="422.558594"/>
      <use xlink:href="#ArialMT-74" x="478.173828"/>
      <use xlink:href="#ArialMT-68" x="505.957031"/>
      <use xlink:href="#ArialMT-20" x="561.572266"/>
      <use xlink:href="#ArialMT-63" x="589.355469"/>
      <use xlink:href="#ArialMT-6d" x="639.355469"/>
     </g>
    </g>
   </g>
   <g id="matplotlib.axis_2">
    <g id="ytick_1">
     <g id="line2d_9">
      <path d="M 44.049063 321.433125 
L 330.838009 321.433125 
" clip-path="url(#pb0a80c69c5)" style="fill: none; stroke: #ffffff; stroke-linecap: round"/>
     </g>
     <g id="text_10">
      <!-- 0 -->
      <g style="fill: #262626" transform="translate(28.432031 325.369922)scale(0.11 -0.11)">
       <defs>
        <path id="ArialMT-30" d="M 266 2259 
Q 266 3072 433 3567 
Q 600 4063 929 4331 
Q 1259 4600 1759 4600 
Q 2128 4600 2406 4451 
Q 2684 4303 2865 4023 
Q 3047 3744 3150 3342 
Q 3253 2941 3253 2259 
Q 3253 1453 3087 958 
Q 2922 463 2592 192 
Q 2263 -78 1759 -78 
Q 1097 -78 719 397 
Q 266 969 266 2259 
z
M 844 2259 
Q 844 1131 1108 757 
Q 1372 384 1759 384 
Q 2147 384 2411 759 
Q 2675 1134 2675 2259 
Q 2675 3391 2411 3762 
Q 2147 4134 1753 4134 
Q 1366 4134 1134 3806 
Q 844 3388 844 2259 
z
" transform="scale(0.015625)"/>
       </defs>
       <use xlink:href="#ArialMT-30"/>
      </g>
     </g>
    </g>
    <g id="ytick_2">
     <g id="line2d_10">
      <path d="M 44.049063 266.580103 
L 330.838009 266.580103 
" clip-path="url(#pb0a80c69c5)" style="fill: none; stroke: #ffffff; stroke-linecap: round"/>
     </g>
     <g id="text_11">
      <!-- 5 -->
      <g style="fill: #262626" transform="translate(28.432031 270.5169)scale(0.11 -0.11)">
       <use xlink:href="#ArialMT-35"/>
      </g>
     </g>
    </g>
    <g id="ytick_3">
     <g id="line2d_11">
      <path d="M 44.049063 211.727081 
L 330.838009 211.727081 
" clip-path="url(#pb0a80c69c5)" style="fill: none; stroke: #ffffff; stroke-linecap: round"/>
     </g>
     <g id="text_12">
      <!-- 10 -->
      <g style="fill: #262626" transform="translate(22.315 215.663878)scale(0.11 -0.11)">
       <use xlink:href="#ArialMT-31"/>
       <use xlink:href="#ArialMT-30" x="55.615234"/>
      </g>
     </g>
    </g>
    <g id="ytick_4">
     <g id="line2d_12">
      <path d="M 44.049063 156.874059 
L 330.838009 156.874059 
" clip-path="url(#pb0a80c69c5)" style="fill: none; stroke: #ffffff; stroke-linecap: round"/>
     </g>
     <g id="text_13">
      <!-- 15 -->
      <g style="fill: #262626" transform="translate(22.315 160.810856)scale(0.11 -0.11)">
       <use xlink:href="#ArialMT-31"/>
       <use xlink:href="#ArialMT-35" x="55.615234"/>
      </g>
     </g>
    </g>
    <g id="ytick_5">
     <g id="line2d_13">
      <path d="M 44.049063 102.021037 
L 330.838009 102.021037 
" clip-path="url(#pb0a80c69c5)" style="fill: none; stroke: #ffffff; stroke-linecap: round"/>
     </g>
     <g id="text_14">
      <!-- 20 -->
      <g style="fill: #262626" transform="translate(22.315 105.957834)scale(0.11 -0.11)">
       <use xlink:href="#ArialMT-32"/>
       <use xlink:href="#ArialMT-30" x="55.615234"/>
      </g>
     </g>
    </g>
    <g id="ytick_6">
     <g id="line2d_14">
      <path d="M 44.049063 47.168015 
L 330.838009 47.168015 
" clip-path="url(#pb0a80c69c5)" style="fill: none; stroke: #ffffff; stroke-linecap: round"/>
     </g>
     <g id="text_15">
      <!-- 25 -->
      <g style="fill: #262626" transform="translate(22.315 51.104812)scale(0.11 -0.11)">
       <use xlink:href="#ArialMT-32"/>
       <use xlink:href="#ArialMT-35" x="55.615234"/>
      </g>
     </g>
    </g>
    <g id="text_16">
     <!-- Density -->
     <g style="fill: #262626" transform="translate(15.789375 191.690625)rotate(-90)scale(0.12 -0.12)">
      <defs>
       <path id="ArialMT-44" d="M 494 0 
L 494 4581 
L 2072 4581 
Q 2606 4581 2888 4516 
Q 3281 4425 3559 4188 
Q 3922 3881 4101 3404 
Q 4281 2928 4281 2316 
Q 4281 1794 4159 1391 
Q 4038 988 3847 723 
Q 3656 459 3429 307 
Q 3203 156 2883 78 
Q 2563 0 2147 0 
L 494 0 
z
M 1100 541 
L 2078 541 
Q 2531 541 2789 625 
Q 3047 709 3200 863 
Q 3416 1078 3536 1442 
Q 3656 1806 3656 2325 
Q 3656 3044 3420 3430 
Q 3184 3816 2847 3947 
Q 2603 4041 2063 4041 
L 1100 4041 
L 1100 541 
z
" transform="scale(0.015625)"/>
       <path id="ArialMT-73" d="M 197 991 
L 753 1078 
Q 800 744 1014 566 
Q 1228 388 1613 388 
Q 2000 388 2187 545 
Q 2375 703 2375 916 
Q 2375 1106 2209 1216 
Q 2094 1291 1634 1406 
Q 1016 1563 777 1677 
Q 538 1791 414 1992 
Q 291 2194 291 2438 
Q 291 2659 392 2848 
Q 494 3038 669 3163 
Q 800 3259 1026 3326 
Q 1253 3394 1513 3394 
Q 1903 3394 2198 3281 
Q 2494 3169 2634 2976 
Q 2775 2784 2828 2463 
L 2278 2388 
Q 2241 2644 2061 2787 
Q 1881 2931 1553 2931 
Q 1166 2931 1000 2803 
Q 834 2675 834 2503 
Q 834 2394 903 2306 
Q 972 2216 1119 2156 
Q 1203 2125 1616 2013 
Q 2213 1853 2448 1751 
Q 2684 1650 2818 1456 
Q 2953 1263 2953 975 
Q 2953 694 2789 445 
Q 2625 197 2315 61 
Q 2006 -75 1616 -75 
Q 969 -75 630 194 
Q 291 463 197 991 
z
" transform="scale(0.015625)"/>
       <path id="ArialMT-69" d="M 425 3934 
L 425 4581 
L 988 4581 
L 988 3934 
L 425 3934 
z
M 425 0 
L 425 3319 
L 988 3319 
L 988 0 
L 425 0 
z
" transform="scale(0.015625)"/>
       <path id="ArialMT-79" d="M 397 -1278 
L 334 -750 
Q 519 -800 656 -800 
Q 844 -800 956 -737 
Q 1069 -675 1141 -563 
Q 1194 -478 1313 -144 
Q 1328 -97 1363 -6 
L 103 3319 
L 709 3319 
L 1400 1397 
Q 1534 1031 1641 628 
Q 1738 1016 1872 1384 
L 2581 3319 
L 3144 3319 
L 1881 -56 
Q 1678 -603 1566 -809 
Q 1416 -1088 1222 -1217 
Q 1028 -1347 759 -1347 
Q 597 -1347 397 -1278 
z
" transform="scale(0.015625)"/>
      </defs>
      <use xlink:href="#ArialMT-44"/>
      <use xlink:href="#ArialMT-65" x="72.216797"/>
      <use xlink:href="#ArialMT-6e" x="127.832031"/>
      <use xlink:href="#ArialMT-73" x="183.447266"/>
      <use xlink:href="#ArialMT-69" x="233.447266"/>
      <use xlink:href="#ArialMT-74" x="255.664062"/>
      <use xlink:href="#ArialMT-79" x="283.447266"/>
     </g>
    </g>
   </g>
   <g id="patch_3">
    <path d="M 66.085655 321.433125 
L 73.521904 321.433125 
L 73.521904 321.433125 
L 66.085655 321.433125 
z
" clip-path="url(#pb0a80c69c5)" style="fill: #55a868; fill-opacity: 0.5; stroke: #ffffff; stroke-width: 0.743625; stroke-linejoin: miter"/>
   </g>
   <g id="patch_4">
    <path d="M 73.521904 321.433125 
L 80.958153 321.433125 
L 80.958153 321.433125 
L 73.521904 321.433125 
z
" clip-path="url(#pb0a80c69c5)" style="fill: #55a868; fill-opacity: 0.5; stroke: #ffffff; stroke-width: 0.743625; stroke-linejoin: miter"/>
   </g>
   <g id="patch_5">
    <path d="M 80.958153 321.433125 
L 88.394402 321.433125 
L 88.394402 321.433125 
L 80.958153 321.433125 
z
" clip-path="url(#pb0a80c69c5)" style="fill: #55a868; fill-opacity: 0.5; stroke: #ffffff; stroke-width: 0.743625; stroke-linejoin: miter"/>
   </g>
   <g id="patch_6">
    <path d="M 88.394402 321.433125 
L 95.83065 321.433125 
L 95.83065 321.433125 
L 88.394402 321.433125 
z
" clip-path="url(#pb0a80c69c5)" style="fill: #55a868; fill-opacity: 0.5; stroke: #ffffff; stroke-width: 0.743625; stroke-linejoin: miter"/>
   </g>
   <g id="patch_7">
    <path d="M 95.83065 321.433125 
L 103.266899 321.433125 
L 103.266899 321.433125 
L 95.83065 321.433125 
z
" clip-path="url(#pb0a80c69c5)" style="fill: #55a868; fill-opacity: 0.5; stroke: #ffffff; stroke-width: 0.743625; stroke-linejoin: miter"/>
   </g>
   <g id="patch_8">
    <path d="M 103.266899 321.433125 
L 110.703148 321.433125 
L 110.703148 321.433125 
L 103.266899 321.433125 
z
" clip-path="url(#pb0a80c69c5)" style="fill: #55a868; fill-opacity: 0.5; stroke: #ffffff; stroke-width: 0.743625; stroke-linejoin: miter"/>
   </g>
   <g id="patch_9">
    <path d="M 110.703148 321.433125 
L 118.139397 321.433125 
L 118.139397 321.433125 
L 110.703148 321.433125 
z
" clip-path="url(#pb0a80c69c5)" style="fill: #55a868; fill-opacity: 0.5; stroke: #ffffff; stroke-width: 0.743625; stroke-linejoin: miter"/>
   </g>
   <g id="patch_10">
    <path d="M 118.139397 321.433125 
L 125.575645 321.433125 
L 125.575645 321.433125 
L 118.139397 321.433125 
z
" clip-path="url(#pb0a80c69c5)" style="fill: #55a868; fill-opacity: 0.5; stroke: #ffffff; stroke-width: 0.743625; stroke-linejoin: miter"/>
   </g>
   <g id="patch_11">
    <path d="M 125.575645 321.433125 
L 133.011894 321.433125 
L 133.011894 321.433125 
L 125.575645 321.433125 
z
" clip-path="url(#pb0a80c69c5)" style="fill: #55a868; fill-opacity: 0.5; stroke: #ffffff; stroke-width: 0.743625; stroke-linejoin: miter"/>
   </g>
   <g id="patch_12">
    <path d="M 133.011894 321.433125 
L 140.448143 321.433125 
L 140.448143 321.433125 
L 133.011894 321.433125 
z
" clip-path="url(#pb0a80c69c5)" style="fill: #55a868; fill-opacity: 0.5; stroke: #ffffff; stroke-width: 0.743625; stroke-linejoin: miter"/>
   </g>
   <g id="patch_13">
    <path d="M 140.448143 321.433125 
L 147.884392 321.433125 
L 147.884392 321.433125 
L 140.448143 321.433125 
z
" clip-path="url(#pb0a80c69c5)" style="fill: #55a868; fill-opacity: 0.5; stroke: #ffffff; stroke-width: 0.743625; stroke-linejoin: miter"/>
   </g>
   <g id="patch_14">
    <path d="M 147.884392 321.433125 
L 155.32064 321.433125 
L 155.32064 321.433125 
L 147.884392 321.433125 
z
" clip-path="url(#pb0a80c69c5)" style="fill: #55a868; fill-opacity: 0.5; stroke: #ffffff; stroke-width: 0.743625; stroke-linejoin: miter"/>
   </g>
   <g id="patch_15">
    <path d="M 155.32064 321.433125 
L 162.756889 321.433125 
L 162.756889 321.433125 
L 155.32064 321.433125 
z
" clip-path="url(#pb0a80c69c5)" style="fill: #55a868; fill-opacity: 0.5; stroke: #ffffff; stroke-width: 0.743625; stroke-linejoin: miter"/>
   </g>
   <g id="patch_16">
    <path d="M 162.756889 321.433125 
L 170.193138 321.433125 
L 170.193138 321.433125 
L 162.756889 321.433125 
z
" clip-path="url(#pb0a80c69c5)" style="fill: #55a868; fill-opacity: 0.5; stroke: #ffffff; stroke-width: 0.743625; stroke-linejoin: miter"/>
   </g>
   <g id="patch_17">
    <path d="M 170.193138 321.433125 
L 177.629387 321.433125 
L 177.629387 321.433125 
L 170.193138 321.433125 
z
" clip-path="url(#pb0a80c69c5)" style="fill: #55a868; fill-opacity: 0.5; stroke: #ffffff; stroke-width: 0.743625; stroke-linejoin: miter"/>
   </g>
   <g id="patch_18">
    <path d="M 177.629387 321.433125 
L 185.065635 321.433125 
L 185.065635 321.433125 
L 177.629387 321.433125 
z
" clip-path="url(#pb0a80c69c5)" style="fill: #55a868; fill-opacity: 0.5; stroke: #ffffff; stroke-width: 0.743625; stroke-linejoin: miter"/>
   </g>
   <g id="patch_19">
    <path d="M 185.065635 321.433125 
L 192.501884 321.433125 
L 192.501884 321.433125 
L 185.065635 321.433125 
z
" clip-path="url(#pb0a80c69c5)" style="fill: #55a868; fill-opacity: 0.5; stroke: #ffffff; stroke-width: 0.743625; stroke-linejoin: miter"/>
   </g>
   <g id="patch_20">
    <path d="M 192.501884 321.433125 
L 199.938133 321.433125 
L 199.938133 310.462521 
L 192.501884 310.462521 
z
" clip-path="url(#pb0a80c69c5)" style="fill: #55a868; fill-opacity: 0.5; stroke: #ffffff; stroke-width: 0.743625; stroke-linejoin: miter"/>
   </g>
   <g id="patch_21">
    <path d="M 199.938133 321.433125 
L 207.374382 321.433125 
L 207.374382 321.433125 
L 199.938133 321.433125 
z
" clip-path="url(#pb0a80c69c5)" style="fill: #55a868; fill-opacity: 0.5; stroke: #ffffff; stroke-width: 0.743625; stroke-linejoin: miter"/>
   </g>
   <g id="patch_22">
    <path d="M 207.374382 321.433125 
L 214.810631 321.433125 
L 214.810631 266.580103 
L 207.374382 266.580103 
z
" clip-path="url(#pb0a80c69c5)" style="fill: #55a868; fill-opacity: 0.5; stroke: #ffffff; stroke-width: 0.743625; stroke-linejoin: miter"/>
   </g>
   <g id="patch_23">
    <path d="M 214.810631 321.433125 
L 222.246879 321.433125 
L 222.246879 211.727081 
L 214.810631 211.727081 
z
" clip-path="url(#pb0a80c69c5)" style="fill: #55a868; fill-opacity: 0.5; stroke: #ffffff; stroke-width: 0.743625; stroke-linejoin: miter"/>
   </g>
   <g id="patch_24">
    <path d="M 222.246879 321.433125 
L 229.683128 321.433125 
L 229.683128 277.550707 
L 222.246879 277.550707 
z
" clip-path="url(#pb0a80c69c5)" style="fill: #55a868; fill-opacity: 0.5; stroke: #ffffff; stroke-width: 0.743625; stroke-linejoin: miter"/>
   </g>
   <g id="patch_25">
    <path d="M 229.683128 321.433125 
L 237.119377 321.433125 
L 237.119377 266.580103 
L 229.683128 266.580103 
z
" clip-path="url(#pb0a80c69c5)" style="fill: #55a868; fill-opacity: 0.5; stroke: #ffffff; stroke-width: 0.743625; stroke-linejoin: miter"/>
   </g>
   <g id="patch_26">
    <path d="M 237.119377 321.433125 
L 244.555626 321.433125 
L 244.555626 222.697685 
L 237.119377 222.697685 
z
" clip-path="url(#pb0a80c69c5)" style="fill: #55a868; fill-opacity: 0.5; stroke: #ffffff; stroke-width: 0.743625; stroke-linejoin: miter"/>
   </g>
   <g id="patch_27">
    <path d="M 244.555626 321.433125 
L 251.991874 321.433125 
L 251.991874 266.580103 
L 244.555626 266.580103 
z
" clip-path="url(#pb0a80c69c5)" style="fill: #55a868; fill-opacity: 0.5; stroke: #ffffff; stroke-width: 0.743625; stroke-linejoin: miter"/>
   </g>
   <g id="patch_28">
    <path d="M 251.991874 321.433125 
L 259.428123 321.433125 
L 259.428123 266.580103 
L 251.991874 266.580103 
z
" clip-path="url(#pb0a80c69c5)" style="fill: #55a868; fill-opacity: 0.5; stroke: #ffffff; stroke-width: 0.743625; stroke-linejoin: miter"/>
   </g>
   <g id="patch_29">
    <path d="M 259.428123 321.433125 
L 266.864372 321.433125 
L 266.864372 310.462521 
L 259.428123 310.462521 
z
" clip-path="url(#pb0a80c69c5)" style="fill: #55a868; fill-opacity: 0.5; stroke: #ffffff; stroke-width: 0.743625; stroke-linejoin: miter"/>
   </g>
   <g id="patch_30">
    <path d="M 266.864372 321.433125 
L 274.300621 321.433125 
L 274.300621 310.462521 
L 266.864372 310.462521 
z
" clip-path="url(#pb0a80c69c5)" style="fill: #55a868; fill-opacity: 0.5; stroke: #ffffff; stroke-width: 0.743625; stroke-linejoin: miter"/>
   </g>
   <g id="patch_31">
    <path d="M 274.300621 321.433125 
L 281.736869 321.433125 
L 281.736869 288.521312 
L 274.300621 288.521312 
z
" clip-path="url(#pb0a80c69c5)" style="fill: #55a868; fill-opacity: 0.5; stroke: #ffffff; stroke-width: 0.743625; stroke-linejoin: miter"/>
   </g>
   <g id="patch_32">
    <path d="M 281.736869 321.433125 
L 289.173118 321.433125 
L 289.173118 310.462521 
L 281.736869 310.462521 
z
" clip-path="url(#pb0a80c69c5)" style="fill: #55a868; fill-opacity: 0.5; stroke: #ffffff; stroke-width: 0.743625; stroke-linejoin: miter"/>
   </g>
   <g id="patch_33">
    <path d="M 66.085655 321.433125 
L 73.521904 321.433125 
L 73.521904 321.433125 
L 66.085655 321.433125 
z
" clip-path="url(#pb0a80c69c5)" style="fill: #dd8452; fill-opacity: 0.5; stroke: #ffffff; stroke-width: 0.743625; stroke-linejoin: miter"/>
   </g>
   <g id="patch_34">
    <path d="M 73.521904 321.433125 
L 80.958153 321.433125 
L 80.958153 321.433125 
L 73.521904 321.433125 
z
" clip-path="url(#pb0a80c69c5)" style="fill: #dd8452; fill-opacity: 0.5; stroke: #ffffff; stroke-width: 0.743625; stroke-linejoin: miter"/>
   </g>
   <g id="patch_35">
    <path d="M 80.958153 321.433125 
L 88.394402 321.433125 
L 88.394402 321.433125 
L 80.958153 321.433125 
z
" clip-path="url(#pb0a80c69c5)" style="fill: #dd8452; fill-opacity: 0.5; stroke: #ffffff; stroke-width: 0.743625; stroke-linejoin: miter"/>
   </g>
   <g id="patch_36">
    <path d="M 88.394402 321.433125 
L 95.83065 321.433125 
L 95.83065 321.433125 
L 88.394402 321.433125 
z
" clip-path="url(#pb0a80c69c5)" style="fill: #dd8452; fill-opacity: 0.5; stroke: #ffffff; stroke-width: 0.743625; stroke-linejoin: miter"/>
   </g>
   <g id="patch_37">
    <path d="M 95.83065 321.433125 
L 103.266899 321.433125 
L 103.266899 321.433125 
L 95.83065 321.433125 
z
" clip-path="url(#pb0a80c69c5)" style="fill: #dd8452; fill-opacity: 0.5; stroke: #ffffff; stroke-width: 0.743625; stroke-linejoin: miter"/>
   </g>
   <g id="patch_38">
    <path d="M 103.266899 321.433125 
L 110.703148 321.433125 
L 110.703148 321.433125 
L 103.266899 321.433125 
z
" clip-path="url(#pb0a80c69c5)" style="fill: #dd8452; fill-opacity: 0.5; stroke: #ffffff; stroke-width: 0.743625; stroke-linejoin: miter"/>
   </g>
   <g id="patch_39">
    <path d="M 110.703148 321.433125 
L 118.139397 321.433125 
L 118.139397 321.433125 
L 110.703148 321.433125 
z
" clip-path="url(#pb0a80c69c5)" style="fill: #dd8452; fill-opacity: 0.5; stroke: #ffffff; stroke-width: 0.743625; stroke-linejoin: miter"/>
   </g>
   <g id="patch_40">
    <path d="M 118.139397 321.433125 
L 125.575645 321.433125 
L 125.575645 321.433125 
L 118.139397 321.433125 
z
" clip-path="url(#pb0a80c69c5)" style="fill: #dd8452; fill-opacity: 0.5; stroke: #ffffff; stroke-width: 0.743625; stroke-linejoin: miter"/>
   </g>
   <g id="patch_41">
    <path d="M 125.575645 321.433125 
L 133.011894 321.433125 
L 133.011894 321.433125 
L 125.575645 321.433125 
z
" clip-path="url(#pb0a80c69c5)" style="fill: #dd8452; fill-opacity: 0.5; stroke: #ffffff; stroke-width: 0.743625; stroke-linejoin: miter"/>
   </g>
   <g id="patch_42">
    <path d="M 133.011894 321.433125 
L 140.448143 321.433125 
L 140.448143 321.433125 
L 133.011894 321.433125 
z
" clip-path="url(#pb0a80c69c5)" style="fill: #dd8452; fill-opacity: 0.5; stroke: #ffffff; stroke-width: 0.743625; stroke-linejoin: miter"/>
   </g>
   <g id="patch_43">
    <path d="M 140.448143 321.433125 
L 147.884392 321.433125 
L 147.884392 310.462521 
L 140.448143 310.462521 
z
" clip-path="url(#pb0a80c69c5)" style="fill: #dd8452; fill-opacity: 0.5; stroke: #ffffff; stroke-width: 0.743625; stroke-linejoin: miter"/>
   </g>
   <g id="patch_44">
    <path d="M 147.884392 321.433125 
L 155.32064 321.433125 
L 155.32064 299.491916 
L 147.884392 299.491916 
z
" clip-path="url(#pb0a80c69c5)" style="fill: #dd8452; fill-opacity: 0.5; stroke: #ffffff; stroke-width: 0.743625; stroke-linejoin: miter"/>
   </g>
   <g id="patch_45">
    <path d="M 155.32064 321.433125 
L 162.756889 321.433125 
L 162.756889 299.491916 
L 155.32064 299.491916 
z
" clip-path="url(#pb0a80c69c5)" style="fill: #dd8452; fill-opacity: 0.5; stroke: #ffffff; stroke-width: 0.743625; stroke-linejoin: miter"/>
   </g>
   <g id="patch_46">
    <path d="M 162.756889 321.433125 
L 170.193138 321.433125 
L 170.193138 299.491916 
L 162.756889 299.491916 
z
" clip-path="url(#pb0a80c69c5)" style="fill: #dd8452; fill-opacity: 0.5; stroke: #ffffff; stroke-width: 0.743625; stroke-linejoin: miter"/>
   </g>
   <g id="patch_47">
    <path d="M 170.193138 321.433125 
L 177.629387 321.433125 
L 177.629387 277.550707 
L 170.193138 277.550707 
z
" clip-path="url(#pb0a80c69c5)" style="fill: #dd8452; fill-opacity: 0.5; stroke: #ffffff; stroke-width: 0.743625; stroke-linejoin: miter"/>
   </g>
   <g id="patch_48">
    <path d="M 177.629387 321.433125 
L 185.065635 321.433125 
L 185.065635 233.66829 
L 177.629387 233.66829 
z
" clip-path="url(#pb0a80c69c5)" style="fill: #dd8452; fill-opacity: 0.5; stroke: #ffffff; stroke-width: 0.743625; stroke-linejoin: miter"/>
   </g>
   <g id="patch_49">
    <path d="M 185.065635 321.433125 
L 192.501884 321.433125 
L 192.501884 255.609499 
L 185.065635 255.609499 
z
" clip-path="url(#pb0a80c69c5)" style="fill: #dd8452; fill-opacity: 0.5; stroke: #ffffff; stroke-width: 0.743625; stroke-linejoin: miter"/>
   </g>
   <g id="patch_50">
    <path d="M 192.501884 321.433125 
L 199.938133 321.433125 
L 199.938133 200.756477 
L 192.501884 200.756477 
z
" clip-path="url(#pb0a80c69c5)" style="fill: #dd8452; fill-opacity: 0.5; stroke: #ffffff; stroke-width: 0.743625; stroke-linejoin: miter"/>
   </g>
   <g id="patch_51">
    <path d="M 199.938133 321.433125 
L 207.374382 321.433125 
L 207.374382 233.66829 
L 199.938133 233.66829 
z
" clip-path="url(#pb0a80c69c5)" style="fill: #dd8452; fill-opacity: 0.5; stroke: #ffffff; stroke-width: 0.743625; stroke-linejoin: miter"/>
   </g>
   <g id="patch_52">
    <path d="M 207.374382 321.433125 
L 214.810631 321.433125 
L 214.810631 277.550707 
L 207.374382 277.550707 
z
" clip-path="url(#pb0a80c69c5)" style="fill: #dd8452; fill-opacity: 0.5; stroke: #ffffff; stroke-width: 0.743625; stroke-linejoin: miter"/>
   </g>
   <g id="patch_53">
    <path d="M 214.810631 321.433125 
L 222.246879 321.433125 
L 222.246879 299.491916 
L 214.810631 299.491916 
z
" clip-path="url(#pb0a80c69c5)" style="fill: #dd8452; fill-opacity: 0.5; stroke: #ffffff; stroke-width: 0.743625; stroke-linejoin: miter"/>
   </g>
   <g id="patch_54">
    <path d="M 222.246879 321.433125 
L 229.683128 321.433125 
L 229.683128 321.433125 
L 222.246879 321.433125 
z
" clip-path="url(#pb0a80c69c5)" style="fill: #dd8452; fill-opacity: 0.5; stroke: #ffffff; stroke-width: 0.743625; stroke-linejoin: miter"/>
   </g>
   <g id="patch_55">
    <path d="M 229.683128 321.433125 
L 237.119377 321.433125 
L 237.119377 321.433125 
L 229.683128 321.433125 
z
" clip-path="url(#pb0a80c69c5)" style="fill: #dd8452; fill-opacity: 0.5; stroke: #ffffff; stroke-width: 0.743625; stroke-linejoin: miter"/>
   </g>
   <g id="patch_56">
    <path d="M 237.119377 321.433125 
L 244.555626 321.433125 
L 244.555626 321.433125 
L 237.119377 321.433125 
z
" clip-path="url(#pb0a80c69c5)" style="fill: #dd8452; fill-opacity: 0.5; stroke: #ffffff; stroke-width: 0.743625; stroke-linejoin: miter"/>
   </g>
   <g id="patch_57">
    <path d="M 244.555626 321.433125 
L 251.991874 321.433125 
L 251.991874 321.433125 
L 244.555626 321.433125 
z
" clip-path="url(#pb0a80c69c5)" style="fill: #dd8452; fill-opacity: 0.5; stroke: #ffffff; stroke-width: 0.743625; stroke-linejoin: miter"/>
   </g>
   <g id="patch_58">
    <path d="M 251.991874 321.433125 
L 259.428123 321.433125 
L 259.428123 321.433125 
L 251.991874 321.433125 
z
" clip-path="url(#pb0a80c69c5)" style="fill: #dd8452; fill-opacity: 0.5; stroke: #ffffff; stroke-width: 0.743625; stroke-linejoin: miter"/>
   </g>
   <g id="patch_59">
    <path d="M 259.428123 321.433125 
L 266.864372 321.433125 
L 266.864372 321.433125 
L 259.428123 321.433125 
z
" clip-path="url(#pb0a80c69c5)" style="fill: #dd8452; fill-opacity: 0.5; stroke: #ffffff; stroke-width: 0.743625; stroke-linejoin: miter"/>
   </g>
   <g id="patch_60">
    <path d="M 266.864372 321.433125 
L 274.300621 321.433125 
L 274.300621 321.433125 
L 266.864372 321.433125 
z
" clip-path="url(#pb0a80c69c5)" style="fill: #dd8452; fill-opacity: 0.5; stroke: #ffffff; stroke-width: 0.743625; stroke-linejoin: miter"/>
   </g>
   <g id="patch_61">
    <path d="M 274.300621 321.433125 
L 281.736869 321.433125 
L 281.736869 321.433125 
L 274.300621 321.433125 
z
" clip-path="url(#pb0a80c69c5)" style="fill: #dd8452; fill-opacity: 0.5; stroke: #ffffff; stroke-width: 0.743625; stroke-linejoin: miter"/>
   </g>
   <g id="patch_62">
    <path d="M 281.736869 321.433125 
L 289.173118 321.433125 
L 289.173118 321.433125 
L 281.736869 321.433125 
z
" clip-path="url(#pb0a80c69c5)" style="fill: #dd8452; fill-opacity: 0.5; stroke: #ffffff; stroke-width: 0.743625; stroke-linejoin: miter"/>
   </g>
   <g id="patch_63">
    <path d="M 66.085655 321.433125 
L 73.521904 321.433125 
L 73.521904 299.491916 
L 66.085655 299.491916 
z
" clip-path="url(#pb0a80c69c5)" style="fill: #4c72b0; fill-opacity: 0.5; stroke: #ffffff; stroke-width: 0.743625; stroke-linejoin: miter"/>
   </g>
   <g id="patch_64">
    <path d="M 73.521904 321.433125 
L 80.958153 321.433125 
L 80.958153 222.697685 
L 73.521904 222.697685 
z
" clip-path="url(#pb0a80c69c5)" style="fill: #4c72b0; fill-opacity: 0.5; stroke: #ffffff; stroke-width: 0.743625; stroke-linejoin: miter"/>
   </g>
   <g id="patch_65">
    <path d="M 80.958153 321.433125 
L 88.394402 321.433125 
L 88.394402 36.197411 
L 80.958153 36.197411 
z
" clip-path="url(#pb0a80c69c5)" style="fill: #4c72b0; fill-opacity: 0.5; stroke: #ffffff; stroke-width: 0.743625; stroke-linejoin: miter"/>
   </g>
   <g id="patch_66">
    <path d="M 88.394402 321.433125 
L 95.83065 321.433125 
L 95.83065 200.756477 
L 88.394402 200.756477 
z
" clip-path="url(#pb0a80c69c5)" style="fill: #4c72b0; fill-opacity: 0.5; stroke: #ffffff; stroke-width: 0.743625; stroke-linejoin: miter"/>
   </g>
   <g id="patch_67">
    <path d="M 95.83065 321.433125 
L 103.266899 321.433125 
L 103.266899 299.491916 
L 95.83065 299.491916 
z
" clip-path="url(#pb0a80c69c5)" style="fill: #4c72b0; fill-opacity: 0.5; stroke: #ffffff; stroke-width: 0.743625; stroke-linejoin: miter"/>
   </g>
   <g id="patch_68">
    <path d="M 103.266899 321.433125 
L 110.703148 321.433125 
L 110.703148 321.433125 
L 103.266899 321.433125 
z
" clip-path="url(#pb0a80c69c5)" style="fill: #4c72b0; fill-opacity: 0.5; stroke: #ffffff; stroke-width: 0.743625; stroke-linejoin: miter"/>
   </g>
   <g id="patch_69">
    <path d="M 110.703148 321.433125 
L 118.139397 321.433125 
L 118.139397 321.433125 
L 110.703148 321.433125 
z
" clip-path="url(#pb0a80c69c5)" style="fill: #4c72b0; fill-opacity: 0.5; stroke: #ffffff; stroke-width: 0.743625; stroke-linejoin: miter"/>
   </g>
   <g id="patch_70">
    <path d="M 118.139397 321.433125 
L 125.575645 321.433125 
L 125.575645 321.433125 
L 118.139397 321.433125 
z
" clip-path="url(#pb0a80c69c5)" style="fill: #4c72b0; fill-opacity: 0.5; stroke: #ffffff; stroke-width: 0.743625; stroke-linejoin: miter"/>
   </g>
   <g id="patch_71">
    <path d="M 125.575645 321.433125 
L 133.011894 321.433125 
L 133.011894 321.433125 
L 125.575645 321.433125 
z
" clip-path="url(#pb0a80c69c5)" style="fill: #4c72b0; fill-opacity: 0.5; stroke: #ffffff; stroke-width: 0.743625; stroke-linejoin: miter"/>
   </g>
   <g id="patch_72">
    <path d="M 133.011894 321.433125 
L 140.448143 321.433125 
L 140.448143 321.433125 
L 133.011894 321.433125 
z
" clip-path="url(#pb0a80c69c5)" style="fill: #4c72b0; fill-opacity: 0.5; stroke: #ffffff; stroke-width: 0.743625; stroke-linejoin: miter"/>
   </g>
   <g id="patch_73">
    <path d="M 140.448143 321.433125 
L 147.884392 321.433125 
L 147.884392 321.433125 
L 140.448143 321.433125 
z
" clip-path="url(#pb0a80c69c5)" style="fill: #4c72b0; fill-opacity: 0.5; stroke: #ffffff; stroke-width: 0.743625; stroke-linejoin: miter"/>
   </g>
   <g id="patch_74">
    <path d="M 147.884392 321.433125 
L 155.32064 321.433125 
L 155.32064 321.433125 
L 147.884392 321.433125 
z
" clip-path="url(#pb0a80c69c5)" style="fill: #4c72b0; fill-opacity: 0.5; stroke: #ffffff; stroke-width: 0.743625; stroke-linejoin: miter"/>
   </g>
   <g id="patch_75">
    <path d="M 155.32064 321.433125 
L 162.756889 321.433125 
L 162.756889 321.433125 
L 155.32064 321.433125 
z
" clip-path="url(#pb0a80c69c5)" style="fill: #4c72b0; fill-opacity: 0.5; stroke: #ffffff; stroke-width: 0.743625; stroke-linejoin: miter"/>
   </g>
   <g id="patch_76">
    <path d="M 162.756889 321.433125 
L 170.193138 321.433125 
L 170.193138 321.433125 
L 162.756889 321.433125 
z
" clip-path="url(#pb0a80c69c5)" style="fill: #4c72b0; fill-opacity: 0.5; stroke: #ffffff; stroke-width: 0.743625; stroke-linejoin: miter"/>
   </g>
   <g id="patch_77">
    <path d="M 170.193138 321.433125 
L 177.629387 321.433125 
L 177.629387 321.433125 
L 170.193138 321.433125 
z
" clip-path="url(#pb0a80c69c5)" style="fill: #4c72b0; fill-opacity: 0.5; stroke: #ffffff; stroke-width: 0.743625; stroke-linejoin: miter"/>
   </g>
   <g id="patch_78">
    <path d="M 177.629387 321.433125 
L 185.065635 321.433125 
L 185.065635 321.433125 
L 177.629387 321.433125 
z
" clip-path="url(#pb0a80c69c5)" style="fill: #4c72b0; fill-opacity: 0.5; stroke: #ffffff; stroke-width: 0.743625; stroke-linejoin: miter"/>
   </g>
   <g id="patch_79">
    <path d="M 185.065635 321.433125 
L 192.501884 321.433125 
L 192.501884 321.433125 
L 185.065635 321.433125 
z
" clip-path="url(#pb0a80c69c5)" style="fill: #4c72b0; fill-opacity: 0.5; stroke: #ffffff; stroke-width: 0.743625; stroke-linejoin: miter"/>
   </g>
   <g id="patch_80">
    <path d="M 192.501884 321.433125 
L 199.938133 321.433125 
L 199.938133 321.433125 
L 192.501884 321.433125 
z
" clip-path="url(#pb0a80c69c5)" style="fill: #4c72b0; fill-opacity: 0.5; stroke: #ffffff; stroke-width: 0.743625; stroke-linejoin: miter"/>
   </g>
   <g id="patch_81">
    <path d="M 199.938133 321.433125 
L 207.374382 321.433125 
L 207.374382 321.433125 
L 199.938133 321.433125 
z
" clip-path="url(#pb0a80c69c5)" style="fill: #4c72b0; fill-opacity: 0.5; stroke: #ffffff; stroke-width: 0.743625; stroke-linejoin: miter"/>
   </g>
   <g id="patch_82">
    <path d="M 207.374382 321.433125 
L 214.810631 321.433125 
L 214.810631 321.433125 
L 207.374382 321.433125 
z
" clip-path="url(#pb0a80c69c5)" style="fill: #4c72b0; fill-opacity: 0.5; stroke: #ffffff; stroke-width: 0.743625; stroke-linejoin: miter"/>
   </g>
   <g id="patch_83">
    <path d="M 214.810631 321.433125 
L 222.246879 321.433125 
L 222.246879 321.433125 
L 214.810631 321.433125 
z
" clip-path="url(#pb0a80c69c5)" style="fill: #4c72b0; fill-opacity: 0.5; stroke: #ffffff; stroke-width: 0.743625; stroke-linejoin: miter"/>
   </g>
   <g id="patch_84">
    <path d="M 222.246879 321.433125 
L 229.683128 321.433125 
L 229.683128 321.433125 
L 222.246879 321.433125 
z
" clip-path="url(#pb0a80c69c5)" style="fill: #4c72b0; fill-opacity: 0.5; stroke: #ffffff; stroke-width: 0.743625; stroke-linejoin: miter"/>
   </g>
   <g id="patch_85">
    <path d="M 229.683128 321.433125 
L 237.119377 321.433125 
L 237.119377 321.433125 
L 229.683128 321.433125 
z
" clip-path="url(#pb0a80c69c5)" style="fill: #4c72b0; fill-opacity: 0.5; stroke: #ffffff; stroke-width: 0.743625; stroke-linejoin: miter"/>
   </g>
   <g id="patch_86">
    <path d="M 237.119377 321.433125 
L 244.555626 321.433125 
L 244.555626 321.433125 
L 237.119377 321.433125 
z
" clip-path="url(#pb0a80c69c5)" style="fill: #4c72b0; fill-opacity: 0.5; stroke: #ffffff; stroke-width: 0.743625; stroke-linejoin: miter"/>
   </g>
   <g id="patch_87">
    <path d="M 244.555626 321.433125 
L 251.991874 321.433125 
L 251.991874 321.433125 
L 244.555626 321.433125 
z
" clip-path="url(#pb0a80c69c5)" style="fill: #4c72b0; fill-opacity: 0.5; stroke: #ffffff; stroke-width: 0.743625; stroke-linejoin: miter"/>
   </g>
   <g id="patch_88">
    <path d="M 251.991874 321.433125 
L 259.428123 321.433125 
L 259.428123 321.433125 
L 251.991874 321.433125 
z
" clip-path="url(#pb0a80c69c5)" style="fill: #4c72b0; fill-opacity: 0.5; stroke: #ffffff; stroke-width: 0.743625; stroke-linejoin: miter"/>
   </g>
   <g id="patch_89">
    <path d="M 259.428123 321.433125 
L 266.864372 321.433125 
L 266.864372 321.433125 
L 259.428123 321.433125 
z
" clip-path="url(#pb0a80c69c5)" style="fill: #4c72b0; fill-opacity: 0.5; stroke: #ffffff; stroke-width: 0.743625; stroke-linejoin: miter"/>
   </g>
   <g id="patch_90">
    <path d="M 266.864372 321.433125 
L 274.300621 321.433125 
L 274.300621 321.433125 
L 266.864372 321.433125 
z
" clip-path="url(#pb0a80c69c5)" style="fill: #4c72b0; fill-opacity: 0.5; stroke: #ffffff; stroke-width: 0.743625; stroke-linejoin: miter"/>
   </g>
   <g id="patch_91">
    <path d="M 274.300621 321.433125 
L 281.736869 321.433125 
L 281.736869 321.433125 
L 274.300621 321.433125 
z
" clip-path="url(#pb0a80c69c5)" style="fill: #4c72b0; fill-opacity: 0.5; stroke: #ffffff; stroke-width: 0.743625; stroke-linejoin: miter"/>
   </g>
   <g id="patch_92">
    <path d="M 281.736869 321.433125 
L 289.173118 321.433125 
L 289.173118 321.433125 
L 281.736869 321.433125 
z
" clip-path="url(#pb0a80c69c5)" style="fill: #4c72b0; fill-opacity: 0.5; stroke: #ffffff; stroke-width: 0.743625; stroke-linejoin: miter"/>
   </g>
   <g id="line2d_15">
    <path d="M 169.796646 321.431794 
L 189.134048 321.318079 
L 197.315257 321.058494 
L 203.265227 320.668397 
L 212.190182 319.804551 
L 218.140152 319.335293 
L 223.346375 319.153021 
L 233.758823 319.103626 
L 242.683777 319.174756 
L 249.377494 319.481529 
L 270.202388 320.691338 
L 282.102328 320.90151 
L 316.314655 321.430754 
L 317.802148 321.431648 
L 317.802148 321.431648 
" clip-path="url(#pb0a80c69c5)" style="fill: none; stroke: #55a868; stroke-width: 1.5; stroke-linecap: round"/>
   </g>
   <g id="line2d_16">
    <path d="M 117.332325 321.431599 
L 134.72038 321.316114 
L 148.888426 320.972376 
L 166.276482 320.318976 
L 172.716502 319.807062 
L 181.732531 319.069164 
L 190.104558 318.695669 
L 197.832583 318.514358 
L 202.340597 318.666456 
L 206.848612 319.068713 
L 224.88067 321.013012 
L 231.32069 321.301497 
L 239.692717 321.418127 
L 245.488736 321.431139 
L 245.488736 321.431139 
" clip-path="url(#pb0a80c69c5)" style="fill: none; stroke: #dd8452; stroke-width: 1.5; stroke-linecap: round"/>
   </g>
   <g id="line2d_17">
    <path d="M 57.084924 321.428998 
L 61.529847 321.309073 
L 65.451839 320.930466 
L 70.681161 320.299296 
L 72.249958 319.828751 
L 73.557288 319.215347 
L 75.126085 318.193731 
L 77.217814 316.483021 
L 80.093941 314.108377 
L 81.401271 313.288264 
L 82.447136 312.857209 
L 83.493 312.685125 
L 84.277398 312.749876 
L 85.323263 313.101192 
L 86.369127 313.720293 
L 87.937924 314.965116 
L 91.075517 317.526741 
L 93.167246 318.934721 
L 94.736042 319.773269 
L 96.043373 320.250196 
L 97.350703 320.49824 
L 99.442432 320.605937 
L 101.795627 320.791358 
L 106.763483 321.369932 
L 109.116678 321.424955 
L 109.116678 321.424955 
" clip-path="url(#pb0a80c69c5)" style="fill: none; stroke: #4c72b0; stroke-width: 1.5; stroke-linecap: round"/>
   </g>
   <g id="patch_93">
    <path d="M 44.049063 321.433125 
L 44.049063 21.935625 
" style="fill: none; stroke: #ffffff; stroke-width: 1.25; stroke-linejoin: miter; stroke-linecap: square"/>
   </g>
   <g id="patch_94">
    <path d="M 44.049063 321.433125 
L 330.838009 321.433125 
" style="fill: none; stroke: #ffffff; stroke-width: 1.25; stroke-linejoin: miter; stroke-linecap: square"/>
   </g>
   <g id="text_17">
    <!-- Histograms of each species -->
    <g style="fill: #262626" transform="translate(113.748536 15.935625)scale(0.12 -0.12)">
     <defs>
      <path id="ArialMT-48" d="M 513 0 
L 513 4581 
L 1119 4581 
L 1119 2700 
L 3500 2700 
L 3500 4581 
L 4106 4581 
L 4106 0 
L 3500 0 
L 3500 2159 
L 1119 2159 
L 1119 0 
L 513 0 
z
" transform="scale(0.015625)"/>
      <path id="ArialMT-6f" d="M 213 1659 
Q 213 2581 725 3025 
Q 1153 3394 1769 3394 
Q 2453 3394 2887 2945 
Q 3322 2497 3322 1706 
Q 3322 1066 3130 698 
Q 2938 331 2570 128 
Q 2203 -75 1769 -75 
Q 1072 -75 642 372 
Q 213 819 213 1659 
z
M 791 1659 
Q 791 1022 1069 705 
Q 1347 388 1769 388 
Q 2188 388 2466 706 
Q 2744 1025 2744 1678 
Q 2744 2294 2464 2611 
Q 2184 2928 1769 2928 
Q 1347 2928 1069 2612 
Q 791 2297 791 1659 
z
" transform="scale(0.015625)"/>
      <path id="ArialMT-72" d="M 416 0 
L 416 3319 
L 922 3319 
L 922 2816 
Q 1116 3169 1280 3281 
Q 1444 3394 1641 3394 
Q 1925 3394 2219 3213 
L 2025 2691 
Q 1819 2813 1613 2813 
Q 1428 2813 1281 2702 
Q 1134 2591 1072 2394 
Q 978 2094 978 1738 
L 978 0 
L 416 0 
z
" transform="scale(0.015625)"/>
      <path id="ArialMT-66" d="M 556 0 
L 556 2881 
L 59 2881 
L 59 3319 
L 556 3319 
L 556 3672 
Q 556 4006 616 4169 
Q 697 4388 901 4523 
Q 1106 4659 1475 4659 
Q 1713 4659 2000 4603 
L 1916 4113 
Q 1741 4144 1584 4144 
Q 1328 4144 1222 4034 
Q 1116 3925 1116 3625 
L 1116 3319 
L 1763 3319 
L 1763 2881 
L 1116 2881 
L 1116 0 
L 556 0 
z
" transform="scale(0.015625)"/>
      <path id="ArialMT-70" d="M 422 -1272 
L 422 3319 
L 934 3319 
L 934 2888 
Q 1116 3141 1344 3267 
Q 1572 3394 1897 3394 
Q 2322 3394 2647 3175 
Q 2972 2956 3137 2557 
Q 3303 2159 3303 1684 
Q 3303 1175 3120 767 
Q 2938 359 2589 142 
Q 2241 -75 1856 -75 
Q 1575 -75 1351 44 
Q 1128 163 984 344 
L 984 -1272 
L 422 -1272 
z
M 931 1641 
Q 931 1000 1190 694 
Q 1450 388 1819 388 
Q 2194 388 2461 705 
Q 2728 1022 2728 1688 
Q 2728 2322 2467 2637 
Q 2206 2953 1844 2953 
Q 1484 2953 1207 2617 
Q 931 2281 931 1641 
z
" transform="scale(0.015625)"/>
     </defs>
     <use xlink:href="#ArialMT-48"/>
     <use xlink:href="#ArialMT-69" x="72.216797"/>
     <use xlink:href="#ArialMT-73" x="94.433594"/>
     <use xlink:href="#ArialMT-74" x="144.433594"/>
     <use xlink:href="#ArialMT-6f" x="172.216797"/>
     <use xlink:href="#ArialMT-67" x="227.832031"/>
     <use xlink:href="#ArialMT-72" x="283.447266"/>
     <use xlink:href="#ArialMT-61" x="316.748047"/>
     <use xlink:href="#ArialMT-6d" x="372.363281"/>
     <use xlink:href="#ArialMT-73" x="455.664062"/>
     <use xlink:href="#ArialMT-20" x="505.664062"/>
     <use xlink:href="#ArialMT-6f" x="533.447266"/>
     <use xlink:href="#ArialMT-66" x="589.0625"/>
     <use xlink:href="#ArialMT-20" x="616.845703"/>
     <use xlink:href="#ArialMT-65" x="644.628906"/>
     <use xlink:href="#ArialMT-61" x="700.244141"/>
     <use xlink:href="#ArialMT-63" x="755.859375"/>
     <use xlink:href="#ArialMT-68" x="805.859375"/>
     <use xlink:href="#ArialMT-20" x="861.474609"/>
     <use xlink:href="#ArialMT-73" x="889.257812"/>
     <use xlink:href="#ArialMT-70" x="939.257812"/>
     <use xlink:href="#ArialMT-65" x="994.873047"/>
     <use xlink:href="#ArialMT-63" x="1050.488281"/>
     <use xlink:href="#ArialMT-69" x="1100.488281"/>
     <use xlink:href="#ArialMT-65" x="1122.705078"/>
     <use xlink:href="#ArialMT-73" x="1178.320312"/>
    </g>
   </g>
   <g id="legend_1">
    <g id="patch_95">
     <path d="M 222.548165 94.018438 
L 323.138009 94.018438 
Q 325.338009 94.018438 325.338009 91.818438 
L 325.338009 29.635625 
Q 325.338009 27.435625 323.138009 27.435625 
L 222.548165 27.435625 
Q 220.348165 27.435625 220.348165 29.635625 
L 220.348165 91.818438 
Q 220.348165 94.018438 222.548165 94.018438 
z
" style="fill: #eaeaf2; opacity: 0.8; stroke: #cccccc; stroke-linejoin: miter"/>
    </g>
    <g id="text_18">
     <!-- species -->
     <g style="fill: #262626" transform="translate(252.500274 40.425)scale(0.12 -0.12)">
      <use xlink:href="#ArialMT-73"/>
      <use xlink:href="#ArialMT-70" x="50"/>
      <use xlink:href="#ArialMT-65" x="105.615234"/>
      <use xlink:href="#ArialMT-63" x="161.230469"/>
      <use xlink:href="#ArialMT-69" x="211.230469"/>
      <use xlink:href="#ArialMT-65" x="233.447266"/>
      <use xlink:href="#ArialMT-73" x="289.0625"/>
     </g>
    </g>
    <g id="patch_96">
     <path d="M 224.748165 56.183594 
L 246.748165 56.183594 
L 246.748165 48.483594 
L 224.748165 48.483594 
z
" style="fill: #4c72b0; fill-opacity: 0.5; stroke: #ffffff; stroke-linejoin: miter"/>
    </g>
    <g id="text_19">
     <!-- Iris-setosa -->
     <g style="fill: #262626" transform="translate(255.548165 56.183594)scale(0.11 -0.11)">
      <defs>
       <path id="ArialMT-49" d="M 597 0 
L 597 4581 
L 1203 4581 
L 1203 0 
L 597 0 
z
" transform="scale(0.015625)"/>
       <path id="ArialMT-2d" d="M 203 1375 
L 203 1941 
L 1931 1941 
L 1931 1375 
L 203 1375 
z
" transform="scale(0.015625)"/>
      </defs>
      <use xlink:href="#ArialMT-49"/>
      <use xlink:href="#ArialMT-72" x="27.783203"/>
      <use xlink:href="#ArialMT-69" x="61.083984"/>
      <use xlink:href="#ArialMT-73" x="83.300781"/>
      <use xlink:href="#ArialMT-2d" x="133.300781"/>
      <use xlink:href="#ArialMT-73" x="166.601562"/>
      <use xlink:href="#ArialMT-65" x="216.601562"/>
      <use xlink:href="#ArialMT-74" x="272.216797"/>
      <use xlink:href="#ArialMT-6f" x="300"/>
      <use xlink:href="#ArialMT-73" x="355.615234"/>
      <use xlink:href="#ArialMT-61" x="405.615234"/>
     </g>
    </g>
    <g id="patch_97">
     <path d="M 224.748165 71.743438 
L 246.748165 71.743438 
L 246.748165 64.043438 
L 224.748165 64.043438 
z
" style="fill: #dd8452; fill-opacity: 0.5; stroke: #ffffff; stroke-linejoin: miter"/>
    </g>
    <g id="text_20">
     <!-- Iris-versicolor -->
     <g style="fill: #262626" transform="translate(255.548165 71.743438)scale(0.11 -0.11)">
      <defs>
       <path id="ArialMT-76" d="M 1344 0 
L 81 3319 
L 675 3319 
L 1388 1331 
Q 1503 1009 1600 663 
Q 1675 925 1809 1294 
L 2547 3319 
L 3125 3319 
L 1869 0 
L 1344 0 
z
" transform="scale(0.015625)"/>
      </defs>
      <use xlink:href="#ArialMT-49"/>
      <use xlink:href="#ArialMT-72" x="27.783203"/>
      <use xlink:href="#ArialMT-69" x="61.083984"/>
      <use xlink:href="#ArialMT-73" x="83.300781"/>
      <use xlink:href="#ArialMT-2d" x="133.300781"/>
      <use xlink:href="#ArialMT-76" x="166.601562"/>
      <use xlink:href="#ArialMT-65" x="216.601562"/>
      <use xlink:href="#ArialMT-72" x="272.216797"/>
      <use xlink:href="#ArialMT-73" x="305.517578"/>
      <use xlink:href="#ArialMT-69" x="355.517578"/>
      <use xlink:href="#ArialMT-63" x="377.734375"/>
      <use xlink:href="#ArialMT-6f" x="427.734375"/>
      <use xlink:href="#ArialMT-6c" x="483.349609"/>
      <use xlink:href="#ArialMT-6f" x="505.566406"/>
      <use xlink:href="#ArialMT-72" x="561.181641"/>
     </g>
    </g>
    <g id="patch_98">
     <path d="M 224.748165 87.303281 
L 246.748165 87.303281 
L 246.748165 79.603281 
L 224.748165 79.603281 
z
" style="fill: #55a868; fill-opacity: 0.5; stroke: #ffffff; stroke-linejoin: miter"/>
    </g>
    <g id="text_21">
     <!-- Iris-virginica -->
     <g style="fill: #262626" transform="translate(255.548165 87.303281)scale(0.11 -0.11)">
      <use xlink:href="#ArialMT-49"/>
      <use xlink:href="#ArialMT-72" x="27.783203"/>
      <use xlink:href="#ArialMT-69" x="61.083984"/>
      <use xlink:href="#ArialMT-73" x="83.300781"/>
      <use xlink:href="#ArialMT-2d" x="133.300781"/>
      <use xlink:href="#ArialMT-76" x="166.601562"/>
      <use xlink:href="#ArialMT-69" x="216.601562"/>
      <use xlink:href="#ArialMT-72" x="238.818359"/>
      <use xlink:href="#ArialMT-67" x="272.119141"/>
      <use xlink:href="#ArialMT-69" x="327.734375"/>
      <use xlink:href="#ArialMT-6e" x="349.951172"/>
      <use xlink:href="#ArialMT-69" x="405.566406"/>
      <use xlink:href="#ArialMT-63" x="427.783203"/>
      <use xlink:href="#ArialMT-61" x="477.783203"/>
     </g>
    </g>
   </g>
  </g>
  <g id="legend_2">
   <g id="text_22">
    <!-- species -->
    <g style="fill: #262626" transform="translate(380.005078 161.351953)scale(0.12 -0.12)">
     <use xlink:href="#ArialMT-73"/>
     <use xlink:href="#ArialMT-70" x="50"/>
     <use xlink:href="#ArialMT-65" x="105.615234"/>
     <use xlink:href="#ArialMT-63" x="161.230469"/>
     <use xlink:href="#ArialMT-69" x="211.230469"/>
     <use xlink:href="#ArialMT-65" x="233.447266"/>
     <use xlink:href="#ArialMT-73" x="289.0625"/>
    </g>
   </g>
   <g id="line2d_18">
    <path d="M 352.252969 173.260547 
L 363.252969 173.260547 
L 374.252969 173.260547 
" style="fill: none; stroke: #4c72b0; stroke-width: 1.5; stroke-linecap: round"/>
   </g>
   <g id="text_23">
    <!-- Iris-setosa -->
    <g style="fill: #262626" transform="translate(383.052969 177.110547)scale(0.11 -0.11)">
     <use xlink:href="#ArialMT-49"/>
     <use xlink:href="#ArialMT-72" x="27.783203"/>
     <use xlink:href="#ArialMT-69" x="61.083984"/>
     <use xlink:href="#ArialMT-73" x="83.300781"/>
     <use xlink:href="#ArialMT-2d" x="133.300781"/>
     <use xlink:href="#ArialMT-73" x="166.601562"/>
     <use xlink:href="#ArialMT-65" x="216.601562"/>
     <use xlink:href="#ArialMT-74" x="272.216797"/>
     <use xlink:href="#ArialMT-6f" x="300"/>
     <use xlink:href="#ArialMT-73" x="355.615234"/>
     <use xlink:href="#ArialMT-61" x="405.615234"/>
    </g>
   </g>
   <g id="line2d_19">
    <path d="M 352.252969 188.820391 
L 363.252969 188.820391 
L 374.252969 188.820391 
" style="fill: none; stroke: #dd8452; stroke-width: 1.5; stroke-linecap: round"/>
   </g>
   <g id="text_24">
    <!-- Iris-versicolor -->
    <g style="fill: #262626" transform="translate(383.052969 192.670391)scale(0.11 -0.11)">
     <use xlink:href="#ArialMT-49"/>
     <use xlink:href="#ArialMT-72" x="27.783203"/>
     <use xlink:href="#ArialMT-69" x="61.083984"/>
     <use xlink:href="#ArialMT-73" x="83.300781"/>
     <use xlink:href="#ArialMT-2d" x="133.300781"/>
     <use xlink:href="#ArialMT-76" x="166.601562"/>
     <use xlink:href="#ArialMT-65" x="216.601562"/>
     <use xlink:href="#ArialMT-72" x="272.216797"/>
     <use xlink:href="#ArialMT-73" x="305.517578"/>
     <use xlink:href="#ArialMT-69" x="355.517578"/>
     <use xlink:href="#ArialMT-63" x="377.734375"/>
     <use xlink:href="#ArialMT-6f" x="427.734375"/>
     <use xlink:href="#ArialMT-6c" x="483.349609"/>
     <use xlink:href="#ArialMT-6f" x="505.566406"/>
     <use xlink:href="#ArialMT-72" x="561.181641"/>
    </g>
   </g>
   <g id="line2d_20">
    <path d="M 352.252969 204.380234 
L 363.252969 204.380234 
L 374.252969 204.380234 
" style="fill: none; stroke: #55a868; stroke-width: 1.5; stroke-linecap: round"/>
   </g>
   <g id="text_25">
    <!-- Iris-virginica -->
    <g style="fill: #262626" transform="translate(383.052969 208.230234)scale(0.11 -0.11)">
     <use xlink:href="#ArialMT-49"/>
     <use xlink:href="#ArialMT-72" x="27.783203"/>
     <use xlink:href="#ArialMT-69" x="61.083984"/>
     <use xlink:href="#ArialMT-73" x="83.300781"/>
     <use xlink:href="#ArialMT-2d" x="133.300781"/>
     <use xlink:href="#ArialMT-76" x="166.601562"/>
     <use xlink:href="#ArialMT-69" x="216.601562"/>
     <use xlink:href="#ArialMT-72" x="238.818359"/>
     <use xlink:href="#ArialMT-67" x="272.119141"/>
     <use xlink:href="#ArialMT-69" x="327.734375"/>
     <use xlink:href="#ArialMT-6e" x="349.951172"/>
     <use xlink:href="#ArialMT-69" x="405.566406"/>
     <use xlink:href="#ArialMT-63" x="427.783203"/>
     <use xlink:href="#ArialMT-61" x="477.783203"/>
    </g>
   </g>
  </g>
 </g>
 <defs>
  <clipPath id="pb0a80c69c5">
   <rect x="44.049063" y="21.935625" width="286.788946" height="299.4975"/>
  </clipPath>
 </defs>
</svg>
